SplineFontDB: 3.2
FontName: MFEKSans-Regular
FullName: MFEK Sans Regular
FamilyName: MFEK Sans
Weight: Regular
Copyright: 
Version: 0.1
ItalicAngle: 0
UnderlinePosition: -200
UnderlineWidth: 100
Ascent: 1600
Descent: 400
InvalidEm: 0
LayerCount: 2
Layer: 0 0 "Back" 1
Layer: 1 0 "Fore" 0
XUID: [1021 31 -699969567 16487490]
FSType: 0
OS2Version: 0
OS2_WeightWidthSlopeOnly: 0
OS2_UseTypoMetrics: 1
CreationTime: 1460762150
ModificationTime: 1695077468
PfmFamily: 33
TTFWeight: 400
TTFWidth: 1
LineGap: 0
VLineGap: 0
OS2TypoAscent: 2500
OS2TypoAOffset: 0
OS2TypoDescent: -850
OS2TypoDOffset: 0
OS2TypoLinegap: 0
OS2WinAscent: 2500
OS2WinAOffset: 0
OS2WinDescent: 850
OS2WinDOffset: 0
HheadAscent: 2500
HheadAOffset: 0
HheadDescent: -850
HheadDOffset: 0
OS2CapHeight: 1500
OS2XHeight: 1040
OS2FamilyClass: 2053
OS2Vendor: 'it* '
OS2UnicodeRanges: 00000001.00000000.00000000.00000000
Lookup: 258 0 0 "kerning yeah boi" { "say cheese" [300,0,4] } ['kern' ('DFLT' <'dflt' > 'grek' <'dflt' > 'latn' <'dflt' > ) ]
MarkAttachClasses: 1
DEI: 91125
KernClass2: 30 23 "say cheese"
 73 A Agrave Aacute Acircumflex Atilde Adieresis Aring Amacron Abreve Aogonek
 96 D O Ograve Oacute Ocircumflex Otilde Odieresis Oslash Dcaron Dcroat Omacron Obreve Ohungarumlaut
 81 E AE Egrave Eacute Ecircumflex Edieresis Emacron Ebreve Edotaccent Eogonek Ecaron
 1 F
 39 G Gcircumflex Gbreve Gdotaccent uni0122
 104 J U Ugrave Uacute Ucircumflex Udieresis IJ Jcircumflex Utilde Umacron Ubreve Uring Uhungarumlaut Uogonek
 11 K X uni0136
 23 L Lacute uni013B Lslash
 1 P
 1 Q
 23 R Racute uni0156 Rcaron
 36 S Sacute Scircumflex Scedilla Scaron
 21 T uni0162 Tcaron Tbar
 1 V
 53 W Wcircumflex Wgrave Wacute Wdieresis uni1E86 uni1E88
 30 Y Ycircumflex Ydieresis Ygrave
 26 Z Zacute Zdotaccent Zcaron
 73 a agrave aacute acircumflex atilde adieresis aring amacron abreve aogonek

StartChar: ampersand
Encoding: 38 38 0
Width: 555
VWidth: 1920
Flags: HMW
LayerCount: 2
Fore
SplineSet
469 21 m 2
 215 1036 l 2
 192.507743636 1125.88047327 174 1175 174 1241 c 0
 174 1331 214 1405 318 1405 c 0
 422 1405 466 1336 466 1231 c 0
 466 1094 392 1013 244 948 c 0
 116 892 73 826 73 704 c 0
 73 665 92 570 110 503 c 2
 181 236 l 2
 215 107 221 25 291 25 c 0
 407 25 488 353.913745493 492 638 c 0
 492.112630681 645.999207106 497 651 503 651 c 2
 504 651 l 2
 510 651 514.121952647 644.999173715 514 636 c 0
 510 340.830557137 435 -5 291 -5 c 0
 203 -5 191 75 146 249 c 2
 84 489 l 2
 61 578 43 646 43 704 c 0
 43 858 117 916 240 975 c 0
 377 1041 436 1099 436 1226 c 0
 436 1326 401 1375 318 1375 c 0
 240 1375 204 1316 204 1241 c 0
 204 1181 233.315238109 1086.82840526 241 1056 c 2
 499 21 l 2
 503.048267297 4.75985793499 497 -3 489 -3 c 2
 487 -3 l 2
 479 -3 473.121341943 4.53085798376 469 21 c 2
EndSplineSet
EndChar

StartChar: period
Encoding: 46 46 1
Width: 275
VWidth: 1920
Flags: HMW
LayerCount: 2
Fore
SplineSet
140 -3 m 262
 136 -3 l 262
 123 -3 114 6 114 18 c 262
 114 192 l 262
 114 204 123 213 136 213 c 262
 140 213 l 262
 153 213 160 204 160 192 c 262
 160 18 l 262
 160 6 153 -3 140 -3 c 262
EndSplineSet
EndChar

StartChar: zero
Encoding: 48 48 2
Width: 380
VWidth: 1920
Flags: HMW
LayerCount: 2
Fore
SplineSet
68 244 m 258
 68 1155 l 258
 68 1318 79 1405 190 1405 c 260
 301 1405 312 1318 312 1155 c 258
 312 244 l 258
 312 81 301 -5 190 -5 c 256
 79 -5 68 81 68 244 c 258
98 254 m 258
 98 130 103 25 190 25 c 260
 277 25 282 130 282 254 c 258
 282 1145 l 258
 282 1269 277 1375 190 1375 c 260
 103 1375 98 1269 98 1145 c 258
 98 254 l 258
EndSplineSet
EndChar

StartChar: one
Encoding: 49 49 3
Width: 232
VWidth: 1920
Flags: HMW
LayerCount: 2
Fore
SplineSet
107 1400 m 260
 110 1408 112 1420 114 1438 c 260
 115 1446 117 1450 122 1450 c 262
 123 1450 l 262
 129 1450 131 1445 131 1436 c 262
 131 16 l 262
 131 3 128 -3 117 -3 c 262
 116 -3 l 262
 105 -3 101 3 101 16 c 262
 101 1377 l 262
 101 1388 105 1395 107 1400 c 260
EndSplineSet
EndChar

StartChar: two
Encoding: 50 50 4
Width: 357
VWidth: 1920
Flags: HMW
LayerCount: 2
Fore
SplineSet
60 130 m 258
 60 482 258 668 258 967 c 258
 258 1138 l 258
 258 1323 247 1375 185 1375 c 256
 115 1375 102 1270 102 1140 c 258
 102 827 l 2
 102 814 96 809 89 809 c 2
 87 809 l 2
 80 809 72 814 72 827 c 2
 72 1140 l 258
 72 1321 101 1405 185 1405 c 256
 274 1405 288 1340 288 1135 c 258
 288 1005 l 258
 288 647 90 460 90 150 c 258
 90 30 l 257
 291 30 l 6
 301 30 308 25 308 16 c 6
 308 14 l 6
 308 5 301 -1.22464679915e-15 291 0 c 6
 85 0 l 2
 66 0 60 6 60 25 c 2
 60 130 l 258
EndSplineSet
EndChar

StartChar: three
Encoding: 51 51 5
Width: 408
VWidth: 1920
Flags: HMW
LayerCount: 2
Fore
SplineSet
74 410 m 2
 76 410 l 2
 86 410 90 402 90 392 c 2
 90 164 l 2
 90 74 125 25 205 25 c 0
 280 25 318 71 318 176 c 2
 318 564 l 2
 318 649 298 700 195 700 c 2
 175 700 l 6
 155 700 147 704 147 714 c 2
 147 716 l 2
 147 725 155 730 175 730 c 6
 185 730 l 2
 273 730 292 772 292 852 c 2
 292 1243 l 2
 292 1328 273 1375 200 1375 c 0
 130 1375 108 1321 108 1225 c 2
 108 966 l 2
 108 954 102 949 93 949 c 2
 91 949 l 2
 82 949 78 954 78 966 c 2
 78 1225 l 2
 78 1342 106 1405 200 1405 c 0
 294 1405 322 1356 322 1241 c 2
 322 869 l 2
 322 744 283 710 185 710 c 1
 195 723 l 1
 318 723 348 676 348 551 c 2
 348 174 l 2
 348 54 309 -5 205 -5 c 0
 104 -5 60 50 60 164 c 2
 60 392 l 2
 60 402 64 410 74 410 c 2
EndSplineSet
EndChar

StartChar: four
Encoding: 52 52 6
Width: 425
VWidth: 1920
Flags: HMW
LayerCount: 2
Fore
SplineSet
387 421 m 2
 387 419 l 2
 387 409 378 405 369 405 c 2
 289 405 l 257
 289 15 l 6
 289 4 283 -3 275 -3 c 6
 273 -3 l 6
 265 -3 259 4 259 15 c 6
 259 405 l 257
 34 405 l 2
 25 405 19 409 19 418 c 2
 19 420 l 2
 19 424 21 431 22 435 c 2
 270 1395 l 2
 271.031247966 1398.99192761 273 1403 279 1403 c 2
 280 1403 l 2
 285 1403 289 1399 289 1391 c 2
 289 435 l 257
 369 435 l 2
 378 435 387 431 387 421 c 2
259 435 m 257
 259 1260 l 257
 46 435 l 257
 259 435 l 257
EndSplineSet
EndChar

StartChar: five
Encoding: 53 53 7
Width: 366
VWidth: 1920
Flags: HMW
LayerCount: 2
Fore
SplineSet
85 367 m 2
 87 367 l 2
 95 367 101 358 101 350 c 0
 101 81 126 25 178 25 c 0
 242 25 256 133 256 319 c 2
 256 612 l 2
 256 832 238 908 196 908 c 0
 151 908 132 833 121 673 c 0
 120.036528227 658.985865125 116 650 101 650 c 2
 100 650 l 2
 88 650 81.129288351 656.945537867 82 675 c 2
 116 1380 l 2
 116.673643921 1393.96820483 121 1400 132 1400 c 2
 312 1400 l 2
 329 1400 336 1399 336 1390 c 2
 336 1389 l 2
 336 1380 321 1370 236 1370 c 2
 145 1370 l 1
 113 690 l 1
 105 690 l 1
 112 802 126 938 196 938 c 0
 271 938 286 854 286 596 c 2
 286 294 l 2
 286 76 259 -5 178 -5 c 0
 101 -5 71 40.9740270691 71 349 c 0
 71 358 76 367 85 367 c 2
EndSplineSet
EndChar

StartChar: six
Encoding: 54 54 8
Width: 421
VWidth: 1920
Flags: HMW
LayerCount: 2
Fore
SplineSet
224 764 m 256
 144 764 106 687 106 595 c 258
 106 560 l 257
 98 610 l 257
 98 722 136 794 224 794 c 256
 312 794 344 734 344 577 c 258
 344 204 l 258
 344 65 320 -5 214 -5 c 256
 76 -5 76 84 76 264 c 258
 76 1121 l 258
 76 1321 92 1405 200 1405 c 256
 308 1405 316 1322 316 1190 c 258
 316 975 l 2
 316 961 315 947 303 947 c 2
 301 947 l 2
 289 947 286 961 286 975 c 2
 286 1190 l 258
 286 1311 279 1375 200 1375 c 256
 123 1375 106 1308 106 1118 c 258
 106 211 l 258
 106 86 120 25 214 25 c 256
 294 25 314 88 314 208 c 258
 314 577 l 258
 314 719 286 764 224 764 c 256
EndSplineSet
EndChar

StartChar: seven
Encoding: 55 55 9
Width: 334
VWidth: 1920
Flags: HMW
LayerCount: 2
Fore
SplineSet
302 1381 m 2
 119 14 l 6
 117.649701116 3.91334112144 111 -3 102 -3 c 6
 100 -3 l 6
 91 -3 87.7446871306 4.89730347093 89 14 c 6
 276 1370 l 257
 42 1370 l 2
 30 1370 23 1375 23 1384 c 2
 23 1386 l 2
 23 1395 30 1400 42 1400 c 2
 285 1400 l 2
 296 1400 304.007903653 1395.99893057 302 1381 c 2
EndSplineSet
EndChar

StartChar: eight
Encoding: 56 56 10
Width: 396
VWidth: 1920
Flags: HMW
LayerCount: 2
Fore
SplineSet
197 25 m 256
 272 25 291 68 291 171 c 258
 291 554 l 258
 291 638 282 692 197 692 c 256
 112 692 105 638 105 554 c 258
 105 171 l 258
 105 68 122 25 197 25 c 256
197 722 m 256
 252 722 280 764 280 852 c 258
 280 1243 l 258
 280 1336 251 1375 197 1375 c 256
 143 1375 114 1336 114 1243 c 258
 114 852 l 258
 114 764 142 722 197 722 c 256
213 712 m 257
 303 712 321 652 321 536 c 258
 321 174 l 258
 321 50 301 -5 197 -5 c 256
 93 -5 75 50 75 174 c 258
 75 536 l 258
 75 652 92 712 182 712 c 257
 183 702 l 257
 120 705 84 749 84 869 c 258
 84 1241 l 258
 84 1352 113 1405 197 1405 c 256
 281 1405 310 1352 310 1241 c 258
 310 869 l 258
 310 749 275 705 212 702 c 257
 213 712 l 257
EndSplineSet
EndChar

StartChar: nine
Encoding: 57 57 11
Width: 406
VWidth: 1920
Flags: HMW
LayerCount: 2
Fore
SplineSet
190 636 m 256
 270 636 308 713 308 805 c 258
 308 840 l 257
 316 790 l 257
 316 678 278 606 190 606 c 256
 102 606 70 666 70 823 c 258
 70 1196 l 258
 70 1335 94 1405 200 1405 c 256
 338 1405 338 1316 338 1136 c 258
 338 279 l 258
 338 79 314 -5 206 -5 c 256
 98 -5 74 78 74 210 c 258
 74 425 l 2
 74 439 77 453 88 453 c 6
 90 453 l 6
 101 453 104 439 104 425 c 2
 104 210 l 258
 104 89 127 25 206 25 c 256
 283 25 308 92 308 282 c 258
 308 1189 l 258
 308 1314 294 1375 200 1375 c 256
 120 1375 100 1312 100 1192 c 258
 100 823 l 258
 100 681 128 636 190 636 c 256
EndSplineSet
EndChar

StartChar: A
Encoding: 65 65 12
Width: 393
VWidth: 960
Flags: HMW
AnchorPoint: "ogonek" 330 0 basechar 0
AnchorPoint: "bottom" 187 0 basechar 0
AnchorPoint: "top" 191 1400 basechar 0
LayerCount: 2
Fore
SplineSet
91 475 m 261
 288 475 l 261
 288 445 l 261
 91 445 l 261
 91 475 l 261
190 1345 m 261
 66 15 l 262
 64.8822267407 3.01098036402 60 -4 51 -4 c 262
 50 -4 l 262
 41 -4 37.8815158039 3.01124752339 39 15 c 262
 167 1387 l 262
 167.841034228 1396.01483564 175 1404 187 1404 c 262
 194 1404 l 262
 206 1404 212.160208005 1396.11996062 213 1388 c 262
 355 15 l 262
 356.340925858 2.03456899463 353 -4 339 -4 c 262
 338 -4 l 262
 324 -4 320.354559206 1.03438957716 319 15 c 262
 190 1345 l 261
EndSplineSet
EndChar

StartChar: B
Encoding: 66 66 13
Width: 389
VWidth: 960
Flags: HMW
AnchorPoint: "top" 192 1400 basechar 0
AnchorPoint: "bottom" 192 0 basechar 0
LayerCount: 2
Fore
SplineSet
106 725 m 257
 187 725 l 258
 256 725 290 802 290 942 c 258
 290 1134 l 258
 290 1294 266 1370 187 1370 c 258
 106 1370 l 257
 106 725 l 257
202 715 m 257
 291 715 341 655 341 481 c 258
 341 264 l 258
 341 64 296 0 202 0 c 258
 101 0 l 262
 86 0 76 10 76 25 c 262
 76 1375 l 258
 76 1390 86 1400 101 1400 c 258
 192 1400 l 258
 286 1400 320 1317 320 1132 c 258
 320 939 l 258
 320 794 281 710 192 710 c 257
 202 715 l 257
192 695 m 258
 106 695 l 257
 106 30 l 257
 192 30 l 258
 286 30 311 96 311 271 c 258
 311 468 l 258
 311 623 277 695 192 695 c 258
EndSplineSet
EndChar

StartChar: C
Encoding: 67 67 14
Width: 420
VWidth: 960
Flags: HMW
AnchorPoint: "top" 216 1400 basechar 0
AnchorPoint: "bottom" 226 0 basechar 0
LayerCount: 2
Fore
SplineSet
362 593 m 260
 362 553 362 525 362 490 c 4
 360 95 343 -5 199 -5 c 260
 60 -5 55 129 55 359 c 262
 55 1042 l 262
 55 1292 90 1405 214 1405 c 260
 337 1405 356 1266 357 940 c 4
 357 916 357 912 357 886 c 260
 357 872 354 859 343 859 c 262
 341 859 l 262
 330 859 327.104951397 872.000441962 327 886 c 260
 324.428569446 1229.00535487 313 1375 214 1375 c 260
 95 1375 85 1241 85 1046 c 262
 85 354 l 262
 85 169 87 25 199 25 c 260
 326 25 332 135.990343448 332 593 c 260
 332 605 337 611 346 611 c 262
 348 611 l 262
 357 611 362 605 362 593 c 260
EndSplineSet
EndChar

StartChar: D
Encoding: 68 68 15
Width: 406
VWidth: 960
Flags: HMW
AnchorPoint: "top" 177 1400 basechar 0
AnchorPoint: "bottom" 162 0 basechar 0
LayerCount: 2
Fore
SplineSet
173 0 m 258
 101 0 l 258
 86 0 76 10 76 25 c 262
 76 1375 l 258
 76 1390 86 1400 101 1400 c 258
 173 1400 l 258
 296 1400 353 1275 353 1022 c 258
 353 369 l 258
 353 116 316 0 173 0 c 258
173 30 m 258
 297 30 323 155 323 364 c 258
 323 1026 l 258
 323 1235 276 1370 173 1370 c 258
 106 1370 l 257
 106 30 l 257
 173 30 l 258
EndSplineSet
EndChar

StartChar: E
Encoding: 69 69 16
Width: 370
VWidth: 960
Flags: HMW
AnchorPoint: "ogonek" 300 0 basechar 0
AnchorPoint: "top" 192 1400 basechar 0
AnchorPoint: "bottom" 192 0 basechar 0
LayerCount: 2
Fore
SplineSet
106 720 m 257
 241 720 l 262
 253 720 259 716 259 708 c 262
 259 707 l 262
 259 699 253 695 241 695 c 262
 106 695 l 257
 106 30 l 257
 326 30 l 258
 337 30 344 24 344 16 c 258
 344 14 l 258
 344 6 337 -1.34711147906e-15 326 0 c 258
 101 0 l 258
 86 0 76 10 76 25 c 258
 76 1375 l 258
 76 1390 86 1400 101 1400 c 258
 314 1400 l 258
 326 1400 334 1395 334 1386 c 258
 334 1384 l 258
 334 1374 326 1370 314 1370 c 258
 106 1370 l 257
 106 720 l 257
EndSplineSet
EndChar

StartChar: F
Encoding: 70 70 17
Width: 326
VWidth: 960
Flags: HMW
AnchorPoint: "top" 172 1400 basechar 0
AnchorPoint: "bottom" 172 0 basechar 0
LayerCount: 2
Fore
SplineSet
106 720 m 257
 246 720 l 258
 258 720 264 716 264 708 c 258
 264 707 l 258
 264 699 258 695 246 695 c 258
 106 695 l 257
 106 15 l 262
 106 4 102 -3 92 -3 c 262
 90 -3 l 262
 80 -3 76 4 76 15 c 262
 76 1375 l 258
 76 1390 86 1400 101 1400 c 258
 288 1400 l 258
 302 1400 309 1395 309 1386 c 258
 309 1384 l 258
 309 1375 302 1370 288 1370 c 258
 106 1370 l 257
 106 720 l 257
EndSplineSet
EndChar

StartChar: G
Encoding: 71 71 18
Width: 420
VWidth: 960
Flags: HMW
AnchorPoint: "top" 211 1400 basechar 0
AnchorPoint: "bottom" 212 0 basechar 0
LayerCount: 2
Fore
SplineSet
238 645 m 2
 238 646 l 2
 238 653 242 660 256 660 c 2
 337 660 l 2
 352 660 362 649 362 635 c 2
 362 13 l 2
 362 0 358 -3 354 -3 c 2
 353 -3 l 2
 349 -3 346.359462769 -0.0176874186087 346 13 c 2
 332 520 l 1
 352 640 l 1
 342 165 313 -5 184 -5 c 0
 79 -5 55 89 55 379 c 2
 55 1022 l 2
 55 1272 79 1405 204 1405 c 0
 323 1405 344 1310 345 1124 c 0
 345 1040 347 961.02380615 347 877 c 0
 347 865 340 860 333 860 c 2
 331 860 l 2
 324 860 317.032083612 865.00004289 317 877 c 0
 316 1251.02138976 323 1375 204 1375 c 0
 98 1375 85 1221 85 1026 c 2
 85 374 l 2
 85 139 99 25 184 25 c 0
 288 25 320 176 332 638 c 1
 338 630 l 1
 256 630 l 2
 242 630 238 638 238 645 c 2
EndSplineSet
EndChar

StartChar: H
Encoding: 72 72 19
Width: 400
VWidth: 960
Flags: HMW
AnchorPoint: "top" 181 1400 basechar 0
AnchorPoint: "bottom" 182 0 basechar 0
LayerCount: 2
Fore
SplineSet
316 1403 m 2
 318 1403 l 2
 329 1403 332 1393 332 1379 c 2
 332 17 l 2
 332 3 325 -3 318 -3 c 2
 316 -3 l 2
 309 -3 302 3 302 17 c 2
 302 695 l 257
 100 695 l 257
 100 17 l 2
 100 3 94 -3 86 -3 c 2
 84 -3 l 2
 76 -3 70 3 70 17 c 2
 70 1379 l 18
 70 1393 73 1403 84 1403 c 10
 86 1403 l 18
 97 1403 100 1393 100 1379 c 10
 100 720 l 257
 302 720 l 257
 302 1379 l 2
 302 1393 305 1403 316 1403 c 2
EndSplineSet
EndChar

StartChar: I
Encoding: 73 73 20
Width: 177
VWidth: 960
Flags: HMW
AnchorPoint: "ogonek" 69 0 basechar 0
AnchorPoint: "top" 70 1400 basechar 0
AnchorPoint: "bottom" 69 0 basechar 0
LayerCount: 2
Fore
SplineSet
69 1403 m 10
 71 1403 l 18
 82 1403 85 1389 85 1375 c 10
 85 25 l 22
 85 5 81 -3 71 -3 c 14
 69 -3 l 22
 59 -3 55 5 55 25 c 14
 55 1375 l 18
 55 1389 58 1403 69 1403 c 10
EndSplineSet
EndChar

StartChar: J
Encoding: 74 74 21
Width: 315
VWidth: 960
Flags: HMW
AnchorPoint: "top" 228 1400 basechar 0
AnchorPoint: "bottom" 129 0 basechar 0
LayerCount: 2
Fore
SplineSet
220 1403 m 2
 222 1403 l 2
 234 1403 237 1389 237 1375 c 2
 237 269 l 258
 237 56 226 -5 137 -5 c 256
 53 -5 40 57 40 239 c 258
 40 647 l 2
 40 661 45 667 52 667 c 2
 54 667 l 2
 61 667 66 661 66 647 c 2
 66 244 l 258
 66 88 76 25 137 25 c 256
 202 25 207 84 207 254 c 258
 207 1375 l 2
 207 1389 208 1403 220 1403 c 2
EndSplineSet
EndChar

StartChar: K
Encoding: 75 75 22
Width: 375
VWidth: 960
Flags: HMW
AnchorPoint: "top" 166 1400 basechar 0
AnchorPoint: "bottom" 166 0 basechar 0
LayerCount: 2
Fore
SplineSet
84 1403 m 10
 86 1403 l 18
 95 1403 100 1394 100 1380 c 10
 100 15 l 18
 100 3 95 -3 86 -3 c 10
 84 -3 l 18
 75 -3 70 3 70 15 c 10
 70 1380 l 18
 70 1394 75 1403 84 1403 c 10
151 757 m 257
 170 815 l 257
 340 19 l 258
 342.786136486 5.95432563138 337 -3 326 -3 c 2
 325 -3 l 2
 311 -3 307.641269618 6.34248715603 305 19 c 258
 151 757 l 257
305 1386 m 258
 307.981691081 1398.00454757 314 1403 321 1403 c 2
 322 1403 l 2
 332 1403 336.83984757 1394.29177486 334 1383 c 258
 166 715 l 1
 164 723 l 1
 78 385 l 257
 75 460 l 257
 305 1386 l 258
EndSplineSet
EndChar

StartChar: L
Encoding: 76 76 23
Width: 273
VWidth: 960
Flags: HMW
AnchorPoint: "top" 86 1400 basechar 0
AnchorPoint: "bottom" 166 0 basechar 0
LayerCount: 2
Fore
SplineSet
84 1403 m 2
 86 1403 l 2
 97 1403 100 1392 100 1385 c 2
 100 30 l 281
 240 30 l 6
 251 30 258 26 258 16 c 2
 258 14 l 2
 258 4 251 -1.34711147906e-15 240 0 c 6
 95 0 l 2
 81 0 70 11 70 25 c 2
 70 1385 l 2
 70 1392 73 1403 84 1403 c 2
EndSplineSet
EndChar

StartChar: M
Encoding: 77 77 24
Width: 511
VWidth: 960
Flags: HMW
AnchorPoint: "top" 256 1400 basechar 0
AnchorPoint: "bottom" 254 0 basechar 0
LayerCount: 2
Fore
SplineSet
95 1260 m 257
 95 15 l 2
 95 6 92 -3 83 -3 c 2
 82 -3 l 2
 73 -3 70 6 70 15 c 2
 70 1375 l 2
 70 1390 75 1403 88 1403 c 2
 90 1403 l 2
 101 1403 106.207096653 1393.78254747 108 1379 c 2
 259 134 l 257
 405 1381 l 2
 406.630491174 1394.92618147 414 1403 424 1403 c 2
 425 1403 l 2
 437 1403 443 1393 443 1379 c 2
 443 15 l 2
 443 6.00000478491 440 -3 429 -3 c 2
 427 -3 l 2
 416 -3 413 6 413 15 c 2
 413 1254 l 257
 263 5 l 2
 262.526445797 1.05687200198 261 -2 257 -2 c 2
 256 -2 l 2
 252 -2 249.483555498 1.05933669056 249 5 c 2
 95 1260 l 257
EndSplineSet
EndChar

StartChar: N
Encoding: 78 78 25
Width: 400
VWidth: 960
Flags: HMW
AnchorPoint: "top" 201 1400 basechar 0
AnchorPoint: "bottom" 196 0 basechar 0
LayerCount: 2
Fore
SplineSet
316 1403 m 6
 318 1403 l 6
 329 1403 332 1394 332 1378 c 6
 332 15 l 6
 332 1 328 -3 324 -3 c 6
 323 -3 l 6
 319 -3 313.551222612 0.0943461863145 311 15 c 6
 76 1388 l 5
 100 1328 l 261
 100 15 l 6
 100 6 97 -3 86 -3 c 6
 84 -3 l 6
 73 -3 70 6 70 15 c 6
 70 1385 l 6
 70 1396 75 1403 83 1403 c 6
 84 1403 l 6
 92 1403 99.1320719961 1393.85058623 101 1383 c 6
 326 76 l 5
 302 136 l 261
 302 1378 l 6
 302 1394 305 1403 316 1403 c 6
EndSplineSet
EndChar

StartChar: O
Encoding: 79 79 26
Width: 415
VWidth: 960
Flags: MW
AnchorPoint: "top" 206 1400 basechar 0
AnchorPoint: "bottom" 206 0 basechar 0
LayerCount: 2
Fore
SplineSet
55 309 m 262
 55 1092 l 262
 55 1329 87 1405 208 1405 c 260
 329 1405 362 1328 362 1092 c 262
 362 309 l 262
 362 72 329 -5 208 -5 c 260
 87 -5 55 72 55 309 c 262
85 304 m 262
 85 106 112 25 208 25 c 260
 304 25 332 107 332 304 c 262
 332 1096 l 262
 332 1293 304 1375 208 1375 c 260
 112 1375 85 1294 85 1096 c 262
 85 304 l 262
EndSplineSet
EndChar

StartChar: P
Encoding: 80 80 27
Width: 355
VWidth: 960
Flags: HMW
AnchorPoint: "top" 162 1400 basechar 0
AnchorPoint: "bottom" 88 0 basechar 0
LayerCount: 2
Fore
SplineSet
106 1370 m 257
 106 665 l 257
 156 665 l 258
 217 665 270 679 270 859 c 258
 270 1161 l 258
 270 1321 227 1370 146 1370 c 258
 106 1370 l 257
121 1400 m 258
 255 1400 300 1351 300 1146 c 258
 300 874 l 258
 300 669 247 635 141 635 c 258
 106 635 l 257
 106 15 l 6
 106 6 104 -4 92 -4 c 6
 90 -4 l 6
 78 -4 76 6 76 15 c 6
 76 1375 l 2
 76 1389 87 1400 101 1400 c 2
 121 1400 l 258
EndSplineSet
EndChar

StartChar: Q
Encoding: 81 81 28
Width: 510
VWidth: 960
Flags: HMW
AnchorPoint: "top" 206 1400 basechar 0
AnchorPoint: "bottom" 216 0 basechar 0
LayerCount: 2
Fore
SplineSet
497 18 m 2
 497 15 l 2
 497 7 490 0 484 -2 c 0
 389 -38 332 36 342 179 c 257
 350 294 l 257
 350 119 327 -5 208 -5 c 256
 69 -5 55 119 55 294 c 258
 55 1106 l 258
 55 1301 83 1405 208 1405 c 256
 333 1405 362 1301 362 1106 c 258
 362 174 l 258
 362 72 397 -10 483 28 c 0
 488 30 497 26 497 18 c 2
332 279 m 258
 332 1122 l 258
 332 1293 302 1375 208 1375 c 256
 114 1375 85 1293 85 1122 c 258
 85 279 l 258
 85 144 99 25 208 25 c 256
 317 25 332 144 332 279 c 258
EndSplineSet
EndChar

StartChar: R
Encoding: 82 82 29
Width: 408
VWidth: 960
Flags: HMW
AnchorPoint: "top" 187 1400 basechar 0
AnchorPoint: "bottom" 188 0 basechar 0
LayerCount: 2
Fore
SplineSet
106 1370 m 261
 106 720 l 261
 171 720 l 262
 236 720 291 779 291 909 c 262
 291 1161 l 262
 291 1281 276 1370 171 1370 c 262
 106 1370 l 261
171 1400 m 262
 295 1400 321 1321 321 1151 c 262
 321 929 l 262
 321 749 240 705 171 705 c 261
 171 710 l 261
 240 710 315 681 315 561 c 262
 315 234 l 262
 315 116 331 64 354 30 c 4
 358 24 361 18 361 9 c 6
 361 8 l 6
 361 2 357 -3 350 -3 c 6
 348 -3 l 6
 339 -3 335 0 332 4 c 4
 304 44 285 90 285 234 c 262
 285 576 l 262
 285 646 246 695 171 695 c 262
 106 695 l 261
 106 15 l 6
 106 6 102 -3 92 -3 c 6
 90 -3 l 6
 80 -3 76 6 76 15 c 6
 76 1375 l 6
 76 1391 85 1400 101 1400 c 6
 171 1400 l 262
EndSplineSet
EndChar

StartChar: S
Encoding: 83 83 30
Width: 374
VWidth: 960
Flags: HMW
AnchorPoint: "top" 166 1400 basechar 0
AnchorPoint: "bottom" 176 0 basechar 0
LayerCount: 2
Fore
SplineSet
69 527 m 2
 71 527 l 2
 80 527 85 521 85 512 c 0
 85 426 86 339 86 258 c 0
 86 87 124 25 180 25 c 256
 233 25 297 88 297 294 c 256
 297 439 224 595 171 712 c 0
 106 855 75 971 75 1166 c 256
 75 1336 103 1405 192 1405 c 256
 285 1405 301 1328 301 1150 c 2
 301 915 l 2
 301 904 295 899 287 899 c 2
 285 899 l 2
 277 899 271 905 271 915 c 0
 271 997 271 1062 271 1146 c 0
 271 1324 251 1375 192 1375 c 256
 121 1375 105 1311 105 1166 c 256
 105 976 133 869 198 732 c 0
 255 611 327 472 327 294 c 256
 327 71 255 -5 180 -5 c 256
 109 -5 55 55 55 234 c 2
 55 512 l 2
 55 520 61 527 69 527 c 2
EndSplineSet
EndChar

StartChar: T
Encoding: 84 84 31
Width: 369
VWidth: 960
Flags: HMW
AnchorPoint: "top" 184 1400 basechar 0
AnchorPoint: "bottom" 184 0 basechar 0
LayerCount: 2
Fore
SplineSet
27 1400 m 2
 342 1400 l 2
 353 1400 360 1395 360 1386 c 2
 360 1384 l 2
 360 1375 353 1370 342 1370 c 2
 202 1370 l 257
 202 15 l 2
 202 4 196 -3 187 -3 c 2
 182 -3 l 2
 173 -3 167 4 167 15 c 2
 167 1370 l 257
 27 1370 l 2
 16 1370 9 1375 9 1384 c 2
 9 1386 l 2
 9 1395 16 1400 27 1400 c 2
EndSplineSet
EndChar

StartChar: U
Encoding: 85 85 32
Width: 398
VWidth: 960
Flags: HMW
AnchorPoint: "ogonek" 251 20 basechar 0
AnchorPoint: "top" 203 1400 basechar 0
AnchorPoint: "bottom" 203 0 basechar 0
LayerCount: 2
Fore
SplineSet
296 174 m 258
 296 1385 l 6
 296 1395 301 1403 310 1403 c 6
 312 1403 l 6
 321 1403 326 1395 326 1385 c 6
 326 199 l 258
 326 59 285 -5 200 -5 c 256
 125 -5 74 28 74 204 c 258
 74 1385 l 6
 74 1393 82 1403 91 1403 c 6
 92 1403 l 6
 101 1403 109 1393 109 1385 c 6
 109 184 l 258
 109 64 145 25 200 25 c 256
 260 25 296 84 296 174 c 258
EndSplineSet
EndChar

StartChar: V
Encoding: 86 86 33
Width: 390
VWidth: 960
Flags: HMW
AnchorPoint: "top" 202 1400 basechar 0
AnchorPoint: "bottom" 203 0 basechar 0
LayerCount: 2
Fore
SplineSet
203 55 m 257
 326 1380 l 258
 327.29706272 1393.97242361 331 1403 341 1403 c 258
 342 1403 l 258
 350 1403 354.300888007 1393.97174206 353 1380 c 258
 226 16 l 258
 224.707650435 2.11996215195 218 -3 208 -3 c 258
 197 -3 l 258
 187 -3 181.128498701 6.01325907399 180 17 c 258
 40 1380 l 258
 38.363274032 1395.93469639 48 1403 57 1403 c 258
 60 1403 l 258
 69 1403 74.3750851419 1395.94005726 76 1379 c 258
 203 55 l 257
EndSplineSet
EndChar

StartChar: W
Encoding: 87 87 34
Width: 655
VWidth: 960
Flags: HMW
AnchorPoint: "top" 337 1400 basechar 0
AnchorPoint: "bottom" 337 0 basechar 0
LayerCount: 2
Fore
SplineSet
187 55 m 257
 308 1387 l 2
 308.999255394 1398.00006764 312 1403 326 1403 c 2
 345 1403 l 2
 359 1403 362.959942341 1396.99652714 364 1385 c 2
 480 47 l 257
 596 1385 l 2
 597.118647225 1397.90301713 602 1403 610 1403 c 2
 611 1403 l 2
 620 1403 625.164101464 1398.07449496 624 1385 c 2
 503 26 l 6
 501.409955939 8.14157125191 496 -3 485 -3 c 6
 467 -3 l 6
 457 -3 450.323996694 7.02865276885 449 22 c 2
 332 1345 l 257
 210 18 l 2
 208.897624919 6.00941202705 203 -3 191 -3 c 2
 177 -3 l 2
 165 -3 159.035181425 5.0025127156 158 17 c 2
 41 1373 l 2
 39.2796977685 1392.93786176 45 1403 56 1403 c 2
 57 1403 l 2
 66 1403 73.3054705236 1392.9409808 75 1373 c 2
 187 55 l 257
EndSplineSet
EndChar

StartChar: X
Encoding: 88 88 35
Width: 387
VWidth: 960
Flags: HMW
AnchorPoint: "top" 190 1400 basechar 0
AnchorPoint: "bottom" 191 0 basechar 0
LayerCount: 2
Fore
SplineSet
313 1403 m 2
 314 1403 l 2
 324 1403 331.680481887 1395.05340919 330 1385 c 2
 216 703 l 257
 345 23 l 2
 347.737312673 8.57075490407 340 -3 329 -3 c 2
 327 -3 l 2
 316 -3 309.587065774 8.27890891516 307 23 c 2
 194 666 l 257
 84 21 l 2
 81.5950948905 6.89851094891 72 -3 63 -3 c 2
 60 -3 l 2
 51 -3 41.3217211596 7.32878562078 44 21 c 2
 178 705 l 257
 60 1379 l 2
 57.7619820589 1391.78325502 66 1403 77 1403 c 2
 78 1403 l 2
 88 1403 95.655295989 1393.66589372 98 1379 c 2
 200 741 l 257
 294 1385 l 2
 295.3488427 1394.24100743 302 1403 313 1403 c 2
EndSplineSet
EndChar

StartChar: Y
Encoding: 89 89 36
Width: 390
VWidth: 960
Flags: HMW
AnchorPoint: "top" 197 1400 basechar 0
AnchorPoint: "bottom" 197 0 basechar 0
LayerCount: 2
Fore
SplineSet
339 1403 m 2
 340 1403 l 2
 347 1403 353.332612862 1397.94004216 351 1385 c 2
 214 625 l 257
 214 20 l 2
 214 6 209 -3 198 -3 c 2
 194 -3 l 2
 183 -3 178 6 178 20 c 2
 178 625 l 257
 42 1381 l 2
 39.497735716 1394.90964558 48 1403 56 1403 c 2
 58 1403 l 2
 68 1403 72.5548099305 1394.92180798 75 1381 c 2
 199 675 l 257
 324 1385 l 2
 326.280051951 1397.95069508 333 1403 339 1403 c 2
EndSplineSet
EndChar

StartChar: Z
Encoding: 90 90 37
Width: 366
VWidth: 960
Flags: HMW
AnchorPoint: "top" 204 1400 basechar 0
AnchorPoint: "bottom" 205 0 basechar 0
LayerCount: 2
Fore
SplineSet
10 28 m 6
 305 1370 l 257
 77 1370 l 2
 64 1370 59 1375 59 1384 c 2
 59 1386 l 2
 59 1395 64 1400 77 1400 c 2
 319 1400 l 2
 334 1400 341.348575853 1389.36002029 338 1374 c 2
 45 30 l 257
 302 30 l 2
 323 30 330 25 330 16 c 2
 330 14 l 2
 330 5 323 -2.57175827821e-15 302 0 c 2
 29 0 l 6
 12 0 6.38919771249 11.5739095938 10 28 c 6
EndSplineSet
EndChar

StartChar: a
Encoding: 97 97 38
Width: 318
VWidth: 1104
Flags: HMW
AnchorPoint: "ogonek" 245 0 basechar 0
AnchorPoint: "top" 170 1050 basechar 0
AnchorPoint: "bottom" 144 0 basechar 0
LayerCount: 2
Fore
SplineSet
85 288 m 0
 85 56 111 23 150 23 c 0
 190 23 226 86 226 288 c 1
 238 264 l 1
 238 46 198 -5 142 -5 c 0
 100 -5 55 19 55 282 c 0
 55 467 97 526 150 594 c 0
 187 641 226 679 226 780 c 1
 237 766 l 1
 237 644 196 610 167 571 c 0
 120 508 85 445 85 288 c 0
226 120 m 2
 226 915 l 2
 226 997 207 1023 179 1023 c 0
 132 1023 99.9375 975.051757812 99 736 c 0
 98.9372558856 720.000969769 95 713 86 713 c 2
 85 713 l 2
 76 713 70.9416486518 720.00097207 71 736 c 0
 71.9375 993.047851562 109 1055 181 1055 c 0
 229 1055 256 1011 256 907 c 2
 256 120 l 2
 256 66 262.5390625 31.869140625 267 17 c 4
 270 7 264 -3 255 -3 c 2
 254 -3 l 2
 241 -3 238.821289062 7.4931640625 235 18 c 4
 231 29 226 65 226 120 c 2
EndSplineSet
EndChar

StartChar: b
Encoding: 98 98 39
Width: 344
VWidth: 1104
Flags: HMW
LayerCount: 2
Fore
SplineSet
84 1453 m 6
 86 1453 l 6
 95 1453 100 1445 100 1431 c 6
 100 151 l 5
 86 6 l 6
 84.7748927949 -6.68861033882 82 -10 78 -10 c 6
 77 -10 l 6
 73 -10 70 -7 70 4 c 6
 70 1431 l 6
 70 1445 75 1453 84 1453 c 6
89 846 m 5
 89 1005 137 1055 198 1055 c 4
 260 1055 290 1009 290 861 c 6
 290 227 l 6
 290 53 275 -3 205 -3 c 4
 117 -3 88 149 88 294 c 5
 100 305 l 5
 100 180 130 25 203 25 c 4
 247 25 260 80 260 214 c 6
 260 873 l 6
 260 963 246 1026 189 1026 c 4
 137 1026 100 954 100 843 c 5
 89 846 l 5
EndSplineSet
EndChar

StartChar: c
Encoding: 99 99 40
Width: 317
VWidth: 1104
Flags: HMW
AnchorPoint: "top" 167 1050 basechar 0
AnchorPoint: "bottom" 181 0 basechar 0
LayerCount: 2
Fore
SplineSet
272 391 m 0
 272 318 270 252 270 182 c 0
 270 46 234 -5 162 -5 c 0
 85 -5 54 55 54 251 c 2
 54 801 l 2
 54 980 84 1054 166 1054 c 0
 229 1054 265 1004 266 878 c 0
 267 809 267 735 267 662 c 0
 267 652 262 645 255 645 c 2
 254 645 l 2
 247 645 242 651 242 661 c 0
 242 736 242 805 241 874 c 0
 240 996 204 1027 163 1027 c 0
 101 1027 84 947 84 813 c 2
 84 238 l 2
 84 66 107 23 166 23 c 0
 211 23 248 44 248 184 c 0
 248 254 250 318.972607879 250 392 c 0
 250 402 255 406 261 406 c 2
 262 406 l 2
 268 406 272 401 272 391 c 0
EndSplineSet
EndChar

StartChar: d
Encoding: 100 100 41
Width: 344
VWidth: 1104
Flags: HMW
LayerCount: 2
Fore
SplineSet
254 231 m 5
 254 70 226 -10 155 -10 c 4
 104 -10 56 31 56 215 c 6
 56 836 l 6
 56 998 91 1070 157 1070 c 4
 224 1070 256 979 256 818 c 5
 245 815 l 5
 245 936 212 1041 159 1041 c 4
 109 1041 90 951 90 848 c 6
 90 201 l 6
 90 75 117 19 167 19 c 4
 218 19 245 113 245 234 c 5
 254 231 l 5
276 1434 m 6
 276 16 l 6
 276 4 272 -3 264 -3 c 6
 262 -3 l 6
 254 -3 249 4 249 16 c 6
 249 149 l 5
 245 167 l 5
 245 1434 l 6
 245 1446 251 1453 260 1453 c 6
 262 1453 l 6
 271 1453 276 1446 276 1434 c 6
EndSplineSet
EndChar

StartChar: e
Encoding: 101 101 42
Width: 336
VWidth: 1104
Flags: HMW
AnchorPoint: "ogonek" 200 15 basechar 0
AnchorPoint: "bottom" 176 0 basechar 0
AnchorPoint: "top" 174 1050 basechar 0
LayerCount: 2
Fore
SplineSet
273 383 m 4
 271.666545886 312.955571955 270 267 267 208 c 4
 257 38 227 -10 173 -10 c 4
 100 -10 65 80 65 258 c 6
 65 793 l 6
 65 965 98 1060 174 1060 c 4
 246 1060 265 979 272 824 c 4
 278 698 277 648 277 522 c 4
 277 503 273 497 252 497 c 6
 82 497 l 5
 82 523 l 5
 250 523 l 5
 248 970 228 1033 174 1033 c 4
 118 1033 95 935 95 805 c 6
 95 245 l 6
 95 111 118 17 174 17 c 4
 233 17 243.416025173 117.822154387 252 385 c 4
 252.38527926 396.99189008 254 406 262 406 c 6
 263 406 l 6
 271 406 273.285481335 397.99592419 273 383 c 4
EndSplineSet
EndChar

StartChar: f
Encoding: 102 102 43
Width: 217
VWidth: 1104
Flags: HMW
LayerCount: 2
Fore
SplineSet
194 1025 m 2
 51 1025 l 2
 42 1025 32 1028 32 1037 c 2
 32 1038 l 2
 32 1047 42 1050 51 1050 c 2
 194 1050 l 2
 209 1050 213 1047 213 1038 c 2
 213 1037 l 2
 213 1028 209 1025 194 1025 c 2
93 1315 m 6
 93 1434 101.340959288 1473.42354916 195 1462 c 4
 205.964107954 1460.66271291 213 1458 213 1449 c 6
 213 1448 l 6
 213 1440 203.987253332 1436.85730251 192 1438 c 4
 122.513371326 1444.62388572 124 1398 124 1315 c 6
 124 16 l 6
 124 1 118 -3 109 -3 c 6
 107 -3 l 6
 98 -3 93 1 93 16 c 6
 93 1315 l 6
EndSplineSet
EndChar

StartChar: g
Encoding: 103 103 44
Width: 286
VWidth: 1104
Flags: HMW
AnchorPoint: "top" 74 1050 basechar 0
LayerCount: 2
Fore
SplineSet
242 1246 m 0
 232 1079.8118688 215 1048 187 1031 c 1
 176 1041 l 1
 201 1050 212.999957291 1093.97385872 216 1247 c 0
 216.176401522 1255.99788665 220 1263 229 1263 c 2
 230 1263 l 2
 239 1263 242.540577153 1254.98375068 242 1246 c 0
161 153 m 2
 233.045288532 128.298758218 242 39 242 -106 c 0
 242 -297 216 -360 150 -360 c 2
 140 -360 l 2
 80 -360 42 -276 42 -114 c 0
 42 25 69 118 123 156 c 1
 125 137 l 1
 87 100 73 -20 73 -115 c 0
 73 -271 110 -339 144 -339 c 2
 150 -339 l 2
 204 -339 214 -238 214 -106 c 0
 214 -7 213.009397024 100.938136257 151 121 c 2
 117 132 l 2
 74.613155834 145.71339076 52 164 52 209 c 0
 52 244 81 282 144 290 c 1
 145 281 l 1
 109 272 82 256 82 219 c 0
 82 183 99.3601168736 174.133674215 126 165 c 2
 161 153 l 2
203 489 m 2
 203 855 l 2
 203 943 183 1042 143 1042 c 0
 101 1042 80 939 80 855 c 2
 80 489 l 2
 80 409 104 304 143 304 c 0
 183 304 203 404 203 489 c 2
233 502 m 2
 233 378 205 274 142 274 c 0
 71 274 50 378 50 502 c 2
 50 842 l 2
 50 970 71 1070 142 1070 c 0
 212 1070 233 970 233 842 c 2
 233 502 l 2
EndSplineSet
EndChar

StartChar: h
Encoding: 104 104 45
Width: 336
VWidth: 1104
Flags: HMW
AnchorPoint: "bottom" 172 0 basechar 0
AnchorPoint: "top" 87 1450 basechar 0
LayerCount: 2
Fore
SplineSet
86 1453 m 2
 88 1453 l 2
 97 1453 102 1445 102 1434 c 2
 102 16 l 2
 102 4 97 -3 88 -3 c 2
 86 -3 l 2
 77 -3 72 4 72 16 c 2
 72 1434 l 2
 72 1445 77 1453 86 1453 c 2
94 839 m 1
 94 967 125 1060 189 1060 c 0
 248 1060 267 1001 267 881 c 2
 267 16 l 2
 267 4 262 -3 253 -3 c 2
 252 -3 l 2
 243 -3 238 4 238 16 c 2
 238 881 l 2
 238 963 231 1033 181 1033 c 0
 133 1033 102 926 102 805 c 1
 94 839 l 1
EndSplineSet
EndChar

StartChar: i
Encoding: 105 105 46
Width: 168
VWidth: 1104
Flags: HMW
AnchorPoint: "bottom" 76 0 basechar 0
AnchorPoint: "ogonek" 76 0 basechar 0
LayerCount: 2
Fore
SplineSet
101 1411 m 258
 101 1229 l 258
 101 1217 97 1210 84 1210 c 258
 83 1210 l 258
 70 1210 67 1217 67 1229 c 258
 67 1411 l 258
 67 1423 70 1431 83 1431 c 258
 85 1431 l 258
 98 1431 101 1423 101 1411 c 258
99 1034 m 262
 99 16 l 262
 99 3 96 -3 85 -3 c 262
 83 -3 l 262
 72 -3 69 3 69 16 c 262
 69 1034 l 262
 69 1047 72 1053 83 1053 c 262
 85 1053 l 262
 96 1053 99 1047 99 1034 c 262
EndSplineSet
EndChar

StartChar: j
Encoding: 106 106 47
Width: 168
VWidth: 1104
Flags: HMW
LayerCount: 2
Fore
SplineSet
101 1411 m 258
 101 1229 l 258
 101 1217 97 1210 84 1210 c 258
 83 1210 l 258
 70 1210 67 1217 67 1229 c 258
 67 1411 l 258
 67 1423 70 1431 83 1431 c 258
 85 1431 l 258
 98 1431 101 1423 101 1411 c 258
100 -55 m 6
 100 -174 86.364364733 -219.436436473 -16 -203 c 4
 -25.9227748135 -201.406720363 -35 -198 -35 -189 c 6
 -35 -188 l 6
 -35 -179 -24.9301635684 -175.499273962 -16 -177 c 4
 60.1031823018 -189.789242478 70 -158 70 -74 c 6
 70 1034 l 6
 70 1046 75 1053 84 1053 c 6
 85 1053 l 6
 94 1053 100 1046 100 1034 c 6
 100 -55 l 6
EndSplineSet
EndChar

StartChar: k
Encoding: 107 107 48
Width: 298
VWidth: 1104
Flags: HMW
LayerCount: 2
Fore
SplineSet
84 1453 m 6
 86 1453 l 6
 95 1453 100 1443 100 1434 c 6
 100 16 l 6
 100 5 95 -3 86 -3 c 6
 84 -3 l 6
 75 -3 70 5 70 16 c 6
 70 1434 l 6
 70 1443 76 1453 84 1453 c 6
83 412 m 5
 231 1032 l 6
 234.043750492 1044.75084666 239 1053 248 1053 c 6
 249 1053 l 6
 258 1053 262.28533134 1044.92748722 259 1032 c 6
 90 367 l 5
 83 412 l 5
145 661 m 5
 159 709 l 5
 268 18 l 6
 269.741596201 6.95923876394 266 -3 255 -3 c 6
 254 -3 l 6
 244 -3 238.562360013 7.08046208579 237 18 c 6
 145 661 l 5
EndSplineSet
EndChar

StartChar: l
Encoding: 108 108 49
Width: 174
VWidth: 1104
Flags: HMW
LayerCount: 2
Fore
SplineSet
87 1453 m 2
 88 1453 l 2
 96 1453 102 1446 102 1434 c 2
 102 16 l 2
 102 4 97 -3 88 -3 c 2
 87 -3 l 2
 78 -3 72 4 72 16 c 2
 72 1434 l 2
 72 1446 79 1453 87 1453 c 2
EndSplineSet
EndChar

StartChar: m
Encoding: 109 109 50
Width: 465
VWidth: 1104
Flags: HMW
LayerCount: 2
Fore
SplineSet
242 839 m 1
 242 983 264 1060 323 1060 c 0
 371 1060 395 1000 395 885 c 2
 395 16 l 2
 395 4 389 -3 380 -3 c 2
 379 -3 l 2
 370 -3 365 4 365 16 c 2
 365 885 l 2
 365 965 350 1031 313 1031 c 0
 277 1031 249 939 249 805 c 1
 242 839 l 1
84 1053 m 2
 86 1053 l 2
 95 1053 98 1046 98 1034 c 2
 98 917 l 1
 103 901 l 1
 103 16 l 2
 103 4 98 -3 89 -3 c 2
 87 -3 l 2
 78 -3 72 4 72 16 c 2
 72 1034 l 2
 72 1046 75 1053 84 1053 c 2
93 842 m 1
 93 979 121 1060 178 1060 c 0
 229 1060 249 1000 249 885 c 2
 249 16 l 2
 249 4 244 -3 235 -3 c 2
 233 -3 l 2
 224 -3 219 4 219 16 c 2
 219 885 l 2
 219 963 206 1031 169 1031 c 0
 133 1031 103 936 103 805 c 1
 93 842 l 1
EndSplineSet
EndChar

StartChar: n
Encoding: 110 110 51
Width: 336
VWidth: 1104
Flags: HMW
AnchorPoint: "bottom" 168 0 basechar 0
AnchorPoint: "top" 190 1050 basechar 0
LayerCount: 2
Fore
SplineSet
85 1053 m 6
 87 1053 l 6
 96 1053 99 1046 99 1034 c 6
 99 902 l 5
 102 886 l 5
 102 16 l 6
 102 4 97 -3 88 -3 c 6
 86 -3 l 6
 77 -3 72 4 72 16 c 6
 72 1034 l 6
 72 1046 76 1053 85 1053 c 6
94 839 m 5
 94 967 117 1060 189 1060 c 4
 248 1060 267 1001 267 881 c 6
 267 16 l 6
 267 4 263 -3 254 -3 c 6
 251 -3 l 6
 242 -3 238 4 238 16 c 6
 238 881 l 6
 238 963 231 1033 181 1033 c 4
 133 1033 102 926 102 805 c 5
 94 839 l 5
EndSplineSet
EndChar

StartChar: o
Encoding: 111 111 52
Width: 349
VWidth: 1104
Flags: HMW
AnchorPoint: "top" 174 1050 basechar 0
AnchorPoint: "bottom" 174 0 basechar 0
LayerCount: 2
Fore
SplineSet
61 221 m 6
 61 831 l 6
 61 998 103 1060 175 1060 c 4
 247 1060 290 998 290 831 c 6
 290 221 l 6
 290 54 247 -10 175 -10 c 4
 103 -10 61 54 61 221 c 6
92 208 m 6
 92 87 121 18 175 18 c 4
 229 18 258 87 258 208 c 6
 258 843 l 6
 258 964 229 1032 175 1032 c 4
 121 1032 92 964 92 843 c 6
 92 208 l 6
EndSplineSet
EndChar

StartChar: p
Encoding: 112 112 53
Width: 344
VWidth: 1104
Flags: HMW
LayerCount: 2
Fore
SplineSet
92 829 m 1
 92 990 120 1070 191 1070 c 0
 242 1070 290 1029 290 845 c 2
 290 224 l 2
 290 62 255 -10 189 -10 c 0
 122 -10 90 81 90 242 c 1
 101 245 l 1
 101 124 134 19 187 19 c 0
 237 19 256 109 256 212 c 2
 256 859 l 2
 256 985 229 1041 179 1041 c 0
 128 1041 101 947 101 826 c 1
 92 829 l 1
70 -374 m 2
 70 1035 l 6
 70 1047 74 1054 82 1054 c 6
 84 1054 l 6
 92 1054 97 1047 97 1035 c 6
 97 911 l 1
 101 893 l 1
 101 -374 l 2
 101 -386 95 -393 86 -393 c 2
 84 -393 l 2
 75 -393 70 -386 70 -374 c 2
EndSplineSet
EndChar

StartChar: q
Encoding: 113 113 54
Width: 344
VWidth: 1104
Flags: HMW
LayerCount: 2
Fore
SplineSet
262 -401 m 6
 260 -401 l 6
 251 -401 246 -393 246 -379 c 6
 246 901 l 5
 260 1046 l 6
 261.225585938 1058.68847656 264 1062 268 1062 c 6
 269 1062 l 6
 273 1062 276 1059 276 1048 c 6
 276 -379 l 6
 276 -393 271 -401 262 -401 c 6
257 206 m 5
 257 47 209 -3 148 -3 c 4
 86 -3 56 43 56 191 c 6
 56 825 l 6
 56 999 71 1055 141 1055 c 4
 229 1055 258 903 258 758 c 5
 246 747 l 5
 246 872 216 1027 143 1027 c 4
 99 1027 86 972 86 838 c 6
 86 179 l 6
 86 89 100 26 157 26 c 4
 209 26 246 98 246 209 c 5
 257 206 l 5
EndSplineSet
EndChar

StartChar: r
Encoding: 114 114 55
Width: 223
VWidth: 1104
Flags: HMW
AnchorPoint: "top" 152 1050 basechar 0
AnchorPoint: "bottom" 85 0 basechar 0
LayerCount: 2
Fore
SplineSet
82 1053 m 10
 83 1053 l 2
 92 1053 96 1045 96 1034 c 2
 96 746 l 1
 100 741 l 1
 100 16 l 2
 100 4 96 -3 86 -3 c 2
 84 -3 l 2
 74 -3 70 4 70 16 c 2
 70 1034 l 2
 70 1045 73 1053 82 1053 c 10
88 717 m 1
 88 898 121 1063 201 1056 c 0
 208 1055 215 1052 215 1043 c 6
 215 1042 l 6
 215 1033 208 1030 200 1030 c 0
 129 1032 100 857 100 692 c 1
 88 717 l 1
EndSplineSet
EndChar

StartChar: s
Encoding: 115 115 56
Width: 316
VWidth: 1104
Flags: HMW
AnchorPoint: "top" 159 1050 basechar 0
AnchorPoint: "bottom" 156 0 basechar 0
LayerCount: 2
Fore
SplineSet
65 396 m 2
 67 396 l 2
 75 396 79 387 79 377 c 0
 79 326 80 269 81 199 c 0
 83 59 109 18 154 18 c 0
 208 18 232 111 232 222 c 0
 232 475 63 525 63 843 c 0
 63 1022 105 1070 160 1070 c 0
 225 1070 246 1001 250 842 c 0
 251 791 253 755 253 687 c 0
 253 676 250 669 241 669 c 2
 239 669 l 2
 230 669 227 677 227 688 c 0
 227 746 226 772 225 824 c 0
 222 955 211 1042 160 1042 c 0
 112 1042 92 967 92 843 c 0
 92 540 263 481 263 222 c 0
 263 62 216 -10 161 -10 c 0
 100 -10 57 18 55 177 c 0
 54 257 54 332 54 378 c 0
 54 388 57 396 65 396 c 2
EndSplineSet
EndChar

StartChar: t
Encoding: 116 116 57
Width: 215
VWidth: 1104
Flags: HMW
AnchorPoint: "bottom" 145 0 basechar 0
LayerCount: 2
Fore
SplineSet
188 1025 m 2
 42 1025 l 2
 31 1025 23 1028 23 1037 c 2
 23 1038 l 2
 23 1047 31 1050 42 1050 c 2
 188 1050 l 2
 199 1050 207 1047 207 1038 c 2
 207 1037 l 2
 207 1028 199 1025 188 1025 c 2
207 11 m 6
 207 10 l 6
 207 3 200.984137896 0.147602056968 191 -1 c 4
 104 -11 89 26 89 146 c 6
 89 1233 l 6
 89 1244 93 1252 102 1252 c 6
 103 1252 l 6
 112 1252 118 1244 118 1233 c 6
 118 146 l 6
 118 63 117 14 189 21 c 4
 199.993526925 22.0688151177 207 19 207 11 c 6
EndSplineSet
EndChar

StartChar: u
Encoding: 117 117 58
Width: 336
VWidth: 1104
Flags: HMW
AnchorPoint: "ogonek" 235 0 basechar 0
AnchorPoint: "bottom" 162 0 basechar 0
AnchorPoint: "top" 170 1050 basechar 0
LayerCount: 2
Fore
SplineSet
253 -3 m 2
 251 -3 l 2
 242 -3 239 4 239 16 c 2
 239 148 l 1
 236 164 l 1
 236 1034 l 2
 236 1046 241 1053 250 1053 c 2
 252 1053 l 2
 261 1053 266 1046 266 1034 c 2
 266 16 l 2
 266 4 262 -3 253 -3 c 2
244 211 m 1
 244 83 221 -10 149 -10 c 0
 90 -10 72 49 72 169 c 2
 72 1034 l 2
 72 1046 76 1053 85 1053 c 2
 88 1053 l 2
 97 1053 101 1046 101 1034 c 2
 101 169 l 2
 101 87 107 17 157 17 c 0
 205 17 236 124 236 245 c 1
 244 211 l 1
EndSplineSet
EndChar

StartChar: v
Encoding: 118 118 59
Width: 272
VWidth: 1104
Flags: HMW
LayerCount: 2
Fore
SplineSet
143 73 m 1
 223 1032 l 2
 224.249566723 1046.97918109 230 1053 237 1053 c 2
 238 1053 l 2
 245 1053 250.275083345 1046.89062849 249 1032 c 2
 162 16 l 2
 160.710321934 0.938932009292 152 -3 143 -3 c 6
 136 -3 l 6
 127 -3 118.284977059 1.93433714167 117 16 c 6
 24 1034 l 2
 23.0034135988 1044.9088705 28 1053 36 1053 c 2
 37 1053 l 2
 45 1053 48.9453608247 1044.89793814 50 1034 c 2
 143 73 l 1
EndSplineSet
EndChar

StartChar: w
Encoding: 119 119 60
Width: 440
VWidth: 1104
Flags: HMW
LayerCount: 2
Fore
SplineSet
317 56 m 1
 386 1032 l 2
 386.919459919 1045.00569392 391 1053 399 1053 c 2
 401 1053 l 2
 409 1053 412.960804356 1045.00288562 412 1032 c 2
 337 17 l 2
 335.96570308 3.00251501258 330 -3 319 -3 c 6
 311 -3 l 2
 301 -3 293.067719487 1.00482191111 292 16 c 2
 224 971 l 1
 159 18 l 2
 157.9770219 3.00156723664 152 -3 141 -3 c 2
 131 -3 l 2
 120 -3 114.223891734 2.01838552518 113 17 c 2
 30 1033 l 2
 28.8572533083 1046.98832095 33 1053 41 1053 c 2
 42 1053 l 2
 50 1053 53.8120016476 1046.9840288 55 1033 c 2
 138 56 l 1
 205 1032 l 2
 205.961248191 1046.00266022 211 1053 222 1053 c 2
 224 1053 l 2
 234 1053 239.914208362 1043.91527704 241 1030 c 2
 317 56 l 1
EndSplineSet
EndChar

StartChar: x
Encoding: 120 120 61
Width: 286
VWidth: 1104
Flags: HMW
LayerCount: 2
Fore
SplineSet
46 -3 m 2
 45 -3 l 2
 35 -3 30.3819904045 8.28792433809 33 23 c 2
 125 540 l 1
 34 1033 l 2
 31.8250228783 1044.78311781 38 1053 48 1053 c 2
 49 1053 l 2
 57 1053 62.0488955271 1043.82862982 64 1033 c 2
 144 589 l 1
 220 1033 l 2
 222.522945908 1047.73931557 228 1053 237 1053 c 2
 238 1053 l 2
 245 1053 253.66677642 1047.69757459 251 1033 c 2
 163 548 l 1
 247 18 l 2
 249.034394144 5.16394171332 242 -3 233 -3 c 6
 232 -3 l 6
 223 -3 215.094767141 3.15447634512 213 18 c 2
 144 507 l 1
 63 23 l 2
 60.530818007 8.24587549882 55 -3 46 -3 c 2
EndSplineSet
EndChar

StartChar: y
Encoding: 121 121 62
Width: 300
VWidth: 1104
Flags: HMW
AnchorPoint: "top" 169 1050 basechar 0
LayerCount: 2
Fore
SplineSet
163 58 m 1
 243 1033 l 2
 243.984718268 1045.00125389 247 1053 256 1053 c 2
 257 1053 l 2
 266 1053 270.038906035 1044.99663074 269 1033 c 2
 174 -64 l 2
 160.285065866 -222.371397318 133 -217 64 -210 c 0
 52.0198969527 -208.784627227 42 -203 42 -194 c 2
 42 -193 l 2
 42 -184 52.1656963718 -177.929620289 62 -180 c 0
 119 -192 135 -198 152 -54 c 1
 46 1034 l 2
 44.83247251 1045.98367839 50 1053 58 1053 c 2
 59 1053 l 2
 67 1053 70.8821718528 1045.98901397 72 1034 c 2
 163 58 l 1
EndSplineSet
EndChar

StartChar: z
Encoding: 122 122 63
Width: 269
VWidth: 1104
Flags: HMW
AnchorPoint: "top" 153 1050 basechar 0
LayerCount: 2
Fore
SplineSet
39 24 m 2
 206 1022 l 1
 78 1022 l 2
 66 1022 59 1025 59 1035 c 2
 59 1036 l 2
 59 1044 66 1050 78 1050 c 2
 213 1050 l 2
 232 1050 237.26712117 1038.62252776 234 1019 c 2
 69 28 l 1
 218 28 l 6
 230 28 238 24 238 15 c 2
 238 14 l 2
 238 5 230 -0 218 0 c 6
 60 0 l 2
 43 0 36.0427798608 6.32751078482 39 24 c 2
EndSplineSet
EndChar

StartChar: comma
Encoding: 44 44 65
Width: 275
VWidth: 1920
Flags: HMW
LayerCount: 2
Fore
SplineSet
108 -211 m 262
 107 -211 l 262
 99 -211 97 -203 99 -193 c 270
 135 0 l 261
 133 0 l 262
 120 0 116 5 116 19 c 262
 116 193 l 262
 116 205 123 213 136 213 c 262
 140 213 l 262
 153 213 161 205 161 193 c 262
 161 38 l 262
 161 27 156 8 154 -3 c 262
 122 -191 l 262
 119 -206 115 -211 108 -211 c 262
EndSplineSet
EndChar

StartChar: exclam
Encoding: 33 33 67
Width: 275
VWidth: 1920
Flags: HMW
LayerCount: 2
Fore
SplineSet
140 -3 m 262
 136 -3 l 262
 123 -3 114 6 114 18 c 262
 114 192 l 262
 114 204 123 213 136 213 c 262
 140 213 l 262
 153 213 160 204 160 192 c 262
 160 18 l 262
 160 6 153 -3 140 -3 c 262
122 950 m 6
 122 1435 l 6
 122 1444 126 1453 136 1453 c 6
 138 1453 l 6
 148 1453 152 1444 152 1435 c 6
 152 950 l 6
 152 943 152.068359375 857.008789062 152 850 c 6
 148 440 l 6
 148 433 144 427 137 427 c 6
 136 427 l 6
 129 427 126 433 126 440 c 6
 124 850 l 6
 123.965820312 857 122 943 122 950 c 6
EndSplineSet
EndChar

StartChar: quotesingle
Encoding: 39 39 70
Width: 275
VWidth: 1920
Flags: HMW
LayerCount: 2
Fore
SplineSet
139 927 m 2
 137 927 l 2
 130 927 126.066751315 932.991111917 126 940 c 2
 124 1150 l 2
 124 1187 122 1203 122 1230 c 2
 122 1405 l 2
 122 1414 126 1423 136 1423 c 2
 138 1423 l 2
 148 1423 152 1414 152 1405 c 2
 152 1230 l 2
 152 1203 152 1187 152 1150 c 2
 150 940 l 2
 149.93333938 933.000634863 146 927 139 927 c 2
EndSplineSet
EndChar

StartChar: question
Encoding: 63 63 71
Width: 396
VWidth: 1920
Flags: HMW
LayerCount: 2
Fore
SplineSet
191 -3 m 262
 187 -3 l 262
 174 -3 165 6 165 18 c 262
 165 192 l 262
 165 204 174 213 187 213 c 262
 191 213 l 262
 204 213 211 204 211 192 c 262
 211 18 l 262
 211 6 204 -3 191 -3 c 262
190 397 m 6
 189 397 l 6
 183 397 182 401 182 404 c 4
 181 585 276 645 276 982 c 262
 276 1233 l 262
 276 1333 256 1437 198 1437 c 260
 128 1437 120 1321 120 1225 c 262
 120 967 l 6
 120 955 117 948 107 948 c 6
 105 948 l 6
 95 948 90 955 90 967 c 6
 90 1225 l 262
 90 1337 104 1467 198 1467 c 260
 286 1467 306 1345 306 1235 c 262
 306 994 l 262
 306 687 195 557 196 404 c 4
 196 401 195 397 190 397 c 6
EndSplineSet
EndChar

StartChar: parenleft
Encoding: 40 40 72
Width: 295
VWidth: 2048
Flags: HMW
LayerCount: 2
Fore
SplineSet
75 1219 m 262
 75 1421 105 1581 245 1609 c 4
 249 1610 253 1607 253 1603 c 6
 253 1602 l 6
 253 1596 248 1594 245 1593 c 4
 136 1562 105 1429 105 1229 c 262
 105 16 l 262
 105 -184 136 -317 245 -348 c 4
 248 -349 253 -351 253 -357 c 6
 253 -358 l 6
 253 -364 249 -365 245 -364 c 4
 105 -336 75 -176 75 26 c 262
 75 1219 l 262
EndSplineSet
EndChar

StartChar: parenright
Encoding: 41 41 73
Width: 294
VWidth: 2048
Flags: HMW
LayerCount: 2
Fore
SplineSet
259 26 m 262
 259 -176 229 -336 89 -364 c 4
 85 -365 81 -362 81 -358 c 6
 81 -357 l 6
 81 -351 86 -349 89 -348 c 4
 198 -317 229 -184 229 16 c 262
 229 1229 l 262
 229 1429 198 1562 89 1593 c 4
 86 1594 81 1596 81 1602 c 6
 81 1603 l 6
 81 1609 85 1610 89 1609 c 4
 229 1581 259 1421 259 1219 c 262
 259 26 l 262
EndSplineSet
EndChar

StartChar: asterisk
Encoding: 42 42 74
Width: 500
VWidth: 2048
Flags: HMW
LayerCount: 2
Fore
SplineSet
251 1205 m 261
 248 1215 l 261
 401 1279 l 6
 409 1282 419 1285 424 1286 c 6
 437 1288 l 6
 446 1289 455 1285 457 1278 c 6
 457 1277 l 6
 459 1270 455 1262 447 1258 c 6
 436 1252 l 6
 432 1250 421 1246 412 1244 c 6
 251 1205 l 261
245 1207 m 261
 254 1213 l 261
 361 1087 l 6
 367 1080 374 1071 376 1067 c 6
 382 1055 l 6
 386 1047 384 1038 378 1034 c 6
 377 1033 l 6
 371 1029 362 1031 356 1037 c 6
 347 1046 l 6
 344 1050 337 1058 332 1066 c 6
 245 1207 l 261
245 1213 m 261
 254 1207 l 261
 167 1066 l 6
 162 1058 156 1049 153 1045 c 6
 144 1036 l 6
 138 1030 128 1029 122 1033 c 6
 121 1034 l 6
 115 1038 114 1047 118 1055 c 6
 124 1067 l 6
 126 1071 132 1080 138 1087 c 6
 245 1213 l 261
251 1215 m 261
 248 1205 l 261
 87 1243 l 6
 78 1245 67 1249 63 1251 c 6
 51 1257 l 6
 43 1261 40 1270 42 1277 c 6
 42 1278 l 6
 44 1285 52 1288 61 1287 c 6
 74 1285 l 6
 79 1284 90 1281 98 1278 c 6
 251 1215 l 261
255 1210 m 261
 244 1210 l 261
 231 1375 l 6
 230 1384 230 1395 231 1400 c 6
 233 1413 l 6
 234 1422 242 1428 249 1428 c 6
 250 1428 l 6
 257 1428 264 1422 265 1413 c 6
 267 1400 l 6
 268 1395 268 1384 267 1375 c 6
 255 1210 l 261
EndSplineSet
EndChar

StartChar: at
Encoding: 64 64 75
Width: 770
VWidth: 1920
Flags: HMW
LayerCount: 2
Fore
SplineSet
473 199 m 257
 473 84 448 -5 370 -5 c 256
 306 -5 278 61 278 211 c 258
 278 838 l 258
 278 998 301 1055 365 1055 c 256
 434 1055 479 966 479 851 c 257
 462 841 l 257
 462 946 418 1025 370 1025 c 256
 316 1025 308 956 308 851 c 258
 308 199 l 258
 308 94 331 25 375 25 c 256
 433 25 462 104 462 209 c 257
 473 199 l 257
566 -312 m 0
 532 -342 472 -365 392 -365 c 256
 148 -365 90 -191 90 49 c 258
 90 990 l 258
 90 1245 168 1405 392 1405 c 256
 640 1405 680 1232 680 1016 c 258
 680 235 l 258
 680 55 652 -5 574 -5 c 256
 496 -5 462 55 462 165 c 258
 462 941 l 257
 473 1054 l 2
 474.175950349 1066.08021722 478 1070 483 1070 c 6
 484 1070 l 2
 489 1070 492 1066 492 1056 c 2
 492 185 l 258
 492 88 510 25 574 25 c 256
 628 25 650 95 650 235 c 258
 650 1016 l 258
 650 1226 600 1375 392 1375 c 256
 194 1375 120 1226 120 996 c 258
 120 45 l 258
 120 -165 168 -335 392 -335 c 256
 468 -335 514.514386397 -311.364210202 551 -284 c 0
 555 -281 563.518554688 -280.27734375 568 -287 c 2
 570 -290 l 2
 576.127929688 -299.192382812 569.181292594 -309.192977123 566 -312 c 0
EndSplineSet
EndChar

StartChar: dollar
Encoding: 36 36 76
Width: 374
VWidth: 960
Flags: HMW
LayerCount: 2
Fore
SplineSet
69 527 m 2
 71 527 l 2
 80 527 84.9642860306 518.999920282 85 510 c 2
 86 258 l 2
 86.6526622478 87.0024910773 124 25 180 25 c 256
 233 25 297 88 297 294 c 256
 297 439 224 595 171 712 c 0
 106 855 75 971 75 1166 c 256
 75 1336 103 1405 192 1405 c 256
 285 1405 301 1328 301 1150 c 2
 301 917 l 2
 301 910 298 902 287 902 c 2
 285 902 l 2
 274 902 271 911 271 917 c 2
 271 1146 l 2
 271 1324 251 1375 192 1375 c 256
 121 1375 105 1311 105 1166 c 256
 105 976 133 869 198 732 c 0
 255 611 327 472 327 294 c 256
 327 71 255 -5 180 -5 c 256
 109 -5 55 55 55 234 c 2
 55 510 l 2
 55 519 60 527 69 527 c 2
183 1590 m 2
 185 1590 l 2
 191 1590 194 1585 194 1574 c 2
 194 -176 l 2
 194 -184 191 -190 185 -190 c 2
 183 -190 l 2
 177 -190 174 -184 174 -176 c 2
 174 1574 l 2
 174 1585 177 1590 183 1590 c 2
EndSplineSet
EndChar

StartChar: numbersign
Encoding: 35 35 77
Width: 502
VWidth: 1920
Flags: HMW
LayerCount: 2
Fore
SplineSet
76 485 m 2
 391 485 l 2
 400 485 406 479 406 471 c 2
 406 469 l 2
 406 461 400 455 391 455 c 2
 76 455 l 2
 62 455 56 460 56 469 c 2
 56 471 l 2
 56 480 62 485 76 485 c 2
111 1025 m 2
 431 1025 l 2
 440 1025 446 1019 446 1011 c 2
 446 1009 l 2
 446 1001 440 995 431 995 c 2
 111 995 l 2
 97 995 93 1002 93 1009 c 2
 93 1011 l 2
 93 1018 97 1025 111 1025 c 2
390 1403 m 2
 392 1403 l 2
 403 1403 404.939931814 1393.00704414 404 1385 c 2
 244 22 l 2
 242.365303331 8.07442774891 237 -3 227 -3 c 2
 225 -3 l 2
 215 -3 212.365303331 8.07442774891 214 22 c 2
 374 1385 l 2
 374.939931814 1393.00704414 379 1403 390 1403 c 2
265 1403 m 2
 267 1403 l 2
 276 1403 280.506339799 1396.82271754 279 1384 c 2
 119 22 l 2
 117.364117724 8.07455212358 111 -3 102 -3 c 2
 100 -3 l 2
 91 -3 87.3641177238 8.07455212358 89 22 c 2
 249 1384 l 2
 250.506339799 1396.82271754 256 1403 265 1403 c 2
EndSplineSet
EndChar

StartChar: slash
Encoding: 47 47 78
Width: 380
VWidth: 2048
Flags: HMW
LayerCount: 2
Fore
SplineSet
360 1386 m 6
 56 -82 l 6
 53.1375867932 -95.8224427223 47 -103 38 -103 c 6
 36 -103 l 6
 29 -103 23.1788722113 -95.6230776114 26 -82 c 6
 330 1386 l 6
 332.423889211 1397.70483343 340 1403 347 1403 c 6
 349 1403 l 6
 356 1403 362.423889211 1397.70483343 360 1386 c 6
EndSplineSet
EndChar

StartChar: percent
Encoding: 37 37 79
Width: 677
VWidth: 2048
Flags: HMW
LayerCount: 2
Fore
SplineSet
90 985 m 262
 90 1216 l 262
 90 1341 104 1405 192 1405 c 260
 280 1405 300 1341 300 1216 c 262
 300 985 l 262
 300 860 280 795 192 795 c 260
 104 795 90 860 90 985 c 262
120 975 m 262
 120 890 128 825 192 825 c 260
 256 825 270 890 270 975 c 262
 270 1226 l 262
 270 1311 256 1375 192 1375 c 260
 128 1375 120 1311 120 1226 c 262
 120 975 l 262
377 185 m 262
 377 442 l 262
 377 567 392 631 480 631 c 260
 568 631 587 567 587 442 c 262
 587 185 l 262
 587 60 568 -5 480 -5 c 260
 392 -5 377 60 377 185 c 262
407 175 m 262
 407 90 416 25 480 25 c 260
 544 25 557 90 557 175 c 262
 557 452 l 262
 557 537 544 601 480 601 c 260
 416 601 407 537 407 452 c 262
 407 175 l 262
611 1388 m 6
 97 18 l 6
 91.4910383368 3.31658078094 85 -3 77 -3 c 6
 75 -3 l 6
 67 -3 61.4910383368 3.31658078094 67 18 c 6
 581 1388 l 6
 584.535613755 1397.4237176 587 1404 597 1404 c 6
 598 1404 l 6
 607 1404 614.535613755 1397.4237176 611 1388 c 6
EndSplineSet
EndChar

StartChar: hyphen
Encoding: 45 45 80
Width: 329
VWidth: 1920
Flags: HMW
LayerCount: 2
Fore
SplineSet
39 612 m 14
 39 613 l 22
 39 622 44 627 58 627 c 14
 272 627 l 22
 286 627 291 622 291 613 c 14
 291 612 l 22
 291 603 286 598 272 598 c 14
 58 598 l 22
 44 598 39 603 39 612 c 14
EndSplineSet
EndChar

StartChar: underscore
Encoding: 95 95 81
Width: 450
VWidth: 1920
Flags: HMW
LayerCount: 2
Fore
SplineSet
-3 -16 m 10
 -3 -14 l 18
 -3 -5 4 0 15 0 c 10
 428 0 l 18
 447 -2.32682891838e-15 453 -5 453 -14 c 10
 453 -15 l 18
 453 -24 447 -30 428 -30 c 10
 15 -30 l 18
 4 -30 -3 -25 -3 -16 c 10
EndSplineSet
EndChar

StartChar: plus
Encoding: 43 43 82
Width: 540
VWidth: 1920
Flags: HMW
LayerCount: 2
Fore
SplineSet
42 685 m 10
 42 687 l 18
 42 696 47 702 56 702 c 10
 479 702 l 18
 493 702 498 696 498 687 c 10
 498 685 l 18
 498 676 493 671 479 671 c 10
 56 671 l 18
 47 671 42 676 42 685 c 10
269 938 m 10
 271 938 l 18
 280 938 285 929 285 920 c 10
 285 440 l 18
 285 431 280 422 271 422 c 10
 269 422 l 18
 260 422 255 431 255 440 c 10
 255 920 l 18
 255 929 260 938 269 938 c 10
EndSplineSet
EndChar

StartChar: equal
Encoding: 61 61 83
Width: 530
VWidth: 1920
Flags: HMW
LayerCount: 2
Fore
SplineSet
42 428 m 14
 42 430 l 22
 42 439 47 444 58 444 c 14
 472 444 l 22
 483 444 488 437 488 430 c 14
 488 428 l 22
 488 421 483 414 472 414 c 14
 58 414 l 22
 47 414 42 419 42 428 c 14
42 565 m 14
 42 567 l 22
 42 576 47 581 58 581 c 14
 472 581 l 22
 483 581 488 574 488 567 c 14
 488 565 l 22
 488 558 483 551 472 551 c 14
 58 551 l 22
 47 551 42 556 42 565 c 14
EndSplineSet
EndChar

StartChar: less
Encoding: 60 60 84
Width: 489
VWidth: 1920
Flags: HMW
LayerCount: 2
Fore
SplineSet
416 373 m 6
 49 591 l 6
 45.9044050539 592.838800268 43 595 43 599 c 6
 43 601 l 6
 43 605 45.9032834976 607.163383564 49 609 c 6
 425 832 l 6
 433.851803982 837.249873106 442 832 442 823 c 6
 442 822 l 6
 442 815 436.810731707 811.016585366 430 807 c 6
 79 600 l 261
 425 396 l 6
 435.52163241 389.796494186 442 385 442 379 c 6
 442 378 l 6
 442 367 428.382848644 365.644520424 416 373 c 6
EndSplineSet
EndChar

StartChar: greater
Encoding: 62 62 85
Width: 489
VWidth: 1920
Flags: HMW
LayerCount: 2
Fore
SplineSet
73 827 m 6
 440 609 l 6
 443.095703125 607.161132812 446 605 446 601 c 6
 446 599 l 6
 446 595 443.096679688 592.836914062 440 591 c 6
 64 368 l 6
 55.1484375 362.75 47 368 47 377 c 6
 47 378 l 6
 47 385 52.189453125 388.983398438 59 393 c 6
 410 600 l 261
 64 804 l 6
 53.478515625 810.203125 47 815 47 821 c 6
 47 822 l 6
 47 833 60.6171875 834.35546875 73 827 c 6
EndSplineSet
EndChar

StartChar: backslash
Encoding: 92 92 86
Width: 379
VWidth: 2048
Flags: HMW
LayerCount: 2
Fore
SplineSet
354 -82 m 6
 356.821289062 -95.623046875 351 -103 344 -103 c 2
 342 -103 l 2
 333 -103 326.862304688 -95.822265625 324 -82 c 2
 20 1386 l 2
 17.576171875 1397.70507812 24 1403 31 1403 c 2
 33 1403 l 2
 40 1403 47.576171875 1397.70507812 50 1386 c 2
 354 -82 l 6
EndSplineSet
EndChar

StartChar: bracketleft
Encoding: 91 91 87
Width: 275
VWidth: 1920
Flags: HMW
LayerCount: 2
Fore
SplineSet
105 1575 m 257
 105 -335 l 257
 235 -335 l 2
 245 -335 252 -338 252 -347 c 2
 252 -348 l 2
 252 -357 245 -360 235 -360 c 2
 100 -360 l 2
 86 -360 75 -349 75 -335 c 2
 75 1575 l 2
 75 1589 86 1600 100 1600 c 2
 235 1600 l 2
 247 1600 253 1596 253 1588 c 2
 253 1587 l 2
 253 1579 247 1575 235 1575 c 2
 105 1575 l 257
EndSplineSet
EndChar

StartChar: braceleft
Encoding: 123 123 88
Width: 288
VWidth: 2048
Flags: HMW
LayerCount: 2
Fore
SplineSet
118 1439 m 262
 118 1553 127.995117188 1594 222 1600 c 4
 232.977662225 1600.70066545 241 1598 241 1589 c 6
 241 1588 l 6
 241 1579 232.921748078 1576.30974002 222 1575 c 4
 171.966796875 1569 148 1556 148 1439 c 262
 148 788 l 262
 148 696 131 644 73 620 c 261
 131 596 148 544 148 452 c 262
 148 -199 l 262
 148 -305 172.922465617 -327 221 -335 c 4
 232.837242623 -336.969692128 241 -340 241 -349 c 6
 241 -350 l 6
 241 -359 232.976690974 -360.715720105 222 -360 c 4
 129.980584354 -354 118 -313 118 -199 c 262
 118 452 l 262
 118 538 98.6142578125 587.077148438 56 604 c 4
 46.521965706 607.763889733 42 613 42 620 c 6
 42 621 l 6
 42 628 45.6078497858 632.424036584 55 636 c 4
 100.237304688 653.223632812 118 701 118 788 c 262
 118 1439 l 262
EndSplineSet
EndChar

StartChar: bracketright
Encoding: 93 93 89
Width: 275
VWidth: 1920
Flags: HMW
LayerCount: 2
Fore
SplineSet
170 -335 m 261
 170 1575 l 261
 40 1575 l 6
 30 1575 23 1578 23 1587 c 6
 23 1588 l 6
 23 1597 30 1600 40 1600 c 6
 175 1600 l 6
 189 1600 200 1589 200 1575 c 6
 200 -335 l 6
 200 -349 189 -360 175 -360 c 6
 40 -360 l 6
 28 -360 22 -356 22 -348 c 6
 22 -347 l 6
 22 -339 28 -335 40 -335 c 6
 170 -335 l 261
EndSplineSet
EndChar

StartChar: braceright
Encoding: 125 125 90
Width: 288
VWidth: 2048
Flags: HMW
LayerCount: 2
Fore
SplineSet
170 -199 m 262
 170 -313 160.004882812 -354 66 -360 c 4
 55.0224609375 -360.700195312 47 -358 47 -349 c 6
 47 -348 l 6
 47 -339 55.078125 -336.309570312 66 -335 c 4
 116.033203125 -329 140 -316 140 -199 c 262
 140 452 l 262
 140 544 157 596 215 620 c 261
 157 644 140 696 140 788 c 262
 140 1439 l 262
 140 1545 115.077148438 1567 67 1575 c 4
 55.1630859375 1576.96972656 47 1580 47 1589 c 6
 47 1590 l 6
 47 1599 55.0234375 1600.71582031 66 1600 c 4
 158.01953125 1594 170 1553 170 1439 c 262
 170 788 l 262
 170 702 189.385742188 652.922851562 232 636 c 4
 241.478515625 632.236328125 246 627 246 620 c 6
 246 619 l 6
 246 612 242.392578125 607.576171875 233 604 c 4
 187.762695312 586.776367188 170 539 170 452 c 262
 170 -199 l 262
EndSplineSet
EndChar

StartChar: bar
Encoding: 124 124 91
Width: 285
VWidth: 1920
Flags: HMW
LayerCount: 2
Fore
SplineSet
142 1603 m 10
 144 1603 l 18
 155 1603 158 1593 158 1580 c 10
 158 -340 l 18
 158 -353 155 -363 144 -363 c 14
 142 -363 l 22
 131 -363 128 -353 128 -340 c 10
 128 1580 l 18
 128 1593 131 1603 142 1603 c 10
EndSplineSet
EndChar

StartChar: asciitilde
Encoding: 126 126 92
Width: 664
VWidth: 2048
Flags: HMW
LayerCount: 2
Fore
SplineSet
207 677 m 256
 151 677 122 617 120 536 c 0
 119.753161652 526.003046923 112 518 105 518 c 2
 103 518 l 2
 95 518 89.5749396285 526.0090379 90 536 c 0
 94 630.019228992 125 707 210 707 c 256
 325 707 361 534 457 534 c 256
 513 534 543 593 545 674 c 0
 545.271522182 684.996648385 550 692 558 692 c 2
 560 692 l 2
 569 692 574.467566409 684.99005831 574 674 c 0
 570 579.980771008 539 504 454 504 c 256
 339 504 303 677 207 677 c 256
EndSplineSet
EndChar

StartChar: asciicircum
Encoding: 94 94 93
Width: 386
VWidth: 1920
Flags: HMW
LayerCount: 2
Fore
SplineSet
192 1321 m 257
 70 757 l 2
 64.9680221034 733.737413658 59 727 52 727 c 2
 51 727 l 2
 45 727 34.7158271316 732.716117332 40 757 c 2
 176 1382 l 6
 179.414607781 1397.69213135 184 1403 191 1403 c 2
 193 1403 l 2
 200 1403 204.585321774 1396.69245508 208 1381 c 6
 344 756 l 2
 347.667571046 739.145353648 346 727 334 727 c 2
 332 727 l 2
 322 727 317.596365258 739.344701879 314 756 c 2
 192 1321 l 257
EndSplineSet
EndChar

StartChar: figuredash
Encoding: 8210 8210 108
Width: 575
VWidth: 2048
Flags: HMW
LayerCount: 2
Fore
SplineSet
37 612 m 14
 37 613 l 22
 37 622 42 627 56 627 c 14
 519 627 l 22
 533 627 538 622 538 613 c 14
 538 612 l 22
 538 603 533 598 519 598 c 14
 56 598 l 22
 42 598 37 603 37 612 c 14
EndSplineSet
EndChar

StartChar: endash
Encoding: 8211 8211 109
Width: 550
VWidth: 2048
Flags: HMW
LayerCount: 2
Fore
SplineSet
37 612 m 14
 37 613 l 22
 37 622 42 627 56 627 c 14
 494 627 l 22
 508 627 513 622 513 613 c 14
 513 612 l 22
 513 603 508 598 494 598 c 14
 56 598 l 22
 42 598 37 603 37 612 c 14
EndSplineSet
EndChar

StartChar: emdash
Encoding: 8212 8212 110
Width: 1100
VWidth: 2048
Flags: HMW
LayerCount: 2
Fore
SplineSet
37 612 m 10
 37 613 l 18
 37 622 42 627 56 627 c 10
 1044 627 l 18
 1058 627 1063 622 1063 613 c 10
 1063 612 l 18
 1063 603 1058 598 1044 598 c 10
 56 598 l 18
 42 598 37 603 37 612 c 10
EndSplineSet
EndChar

StartChar: uni2015
Encoding: 8213 8213 111
Width: 1180
VWidth: 2048
Flags: HMW
LayerCount: 2
Fore
SplineSet
37 612 m 14
 37 613 l 22
 37 622 42 627 56 627 c 14
 1124 627 l 22
 1138 627 1143 622 1143 613 c 14
 1143 612 l 22
 1143 603 1138 598 1124 598 c 14
 56 598 l 22
 42 598 37 603 37 612 c 14
EndSplineSet
EndChar

StartChar: quoteleft
Encoding: 8216 8216 114
Width: 286
VWidth: 1920
Flags: HMW
LayerCount: 2
Fore
SplineSet
174 1471 m 258
 175 1471 l 258
 183 1471 185 1463 183 1453 c 266
 147 1260 l 257
 149 1260 l 258
 162 1260 166 1255 166 1241 c 258
 166 1067 l 258
 166 1055 159 1047 146 1047 c 258
 142 1047 l 258
 129 1047 121 1055 121 1067 c 258
 121 1222 l 258
 121 1233 126 1252 128 1263 c 258
 160 1451 l 258
 163 1466 167 1471 174 1471 c 258
EndSplineSet
EndChar

StartChar: quotereversed
Encoding: 8219 8219 117
Width: 286
VWidth: 1920
Flags: HMW
LayerCount: 2
Fore
SplineSet
174 999 m 258
 167 999 163 1004 160 1019 c 258
 128 1207 l 258
 126 1218 121 1237 121 1248 c 258
 121 1403 l 258
 121 1415 129 1423 142 1423 c 258
 146 1423 l 258
 159 1423 166 1415 166 1403 c 258
 166 1229 l 258
 166 1215 162 1210 149 1210 c 258
 147 1210 l 257
 183 1017 l 274
 185 1007 183 999 175 999 c 258
 174 999 l 258
EndSplineSet
EndChar

StartChar: bullet
Encoding: 8226 8226 120
Width: 345
VWidth: 2048
Flags: HMW
LayerCount: 2
Fore
SplineSet
76 732 m 258
 76 759 l 258
 76 819 122 848 170 848 c 256
 218 848 270 819 270 759 c 258
 270 732 l 258
 270 672 218 642 170 642 c 256
 122 642 76 672 76 732 c 258
EndSplineSet
EndChar

StartChar: dagger
Encoding: 8224 8224 124
Width: 380
VWidth: 1920
Flags: HMW
LayerCount: 2
Fore
SplineSet
32 1034 m 10
 32 1035 l 18
 32 1044 39 1050 50 1050 c 10
 330 1050 l 18
 341 1050 348 1044 348 1035 c 10
 348 1034 l 18
 348 1025 341 1020 330 1020 c 10
 50 1020 l 18
 39 1020 32 1025 32 1034 c 10
189 1403 m 10
 191 1403 l 18
 200 1403 205 1394 205 1385 c 10
 205 15 l 22
 205 4 200 -3 191 -3 c 14
 189 -3 l 22
 180 -3 175 4 175 15 c 14
 175 1385 l 18
 175 1394 180 1403 189 1403 c 10
EndSplineSet
EndChar

StartChar: daggerdbl
Encoding: 8225 8225 125
Width: 380
VWidth: 1920
Flags: HMW
LayerCount: 2
Fore
SplineSet
32 14 m 10
 32 15 l 18
 32 23 39 30 50 30 c 10
 330 30 l 18
 341 30 348 24 348 15 c 10
 348 14 l 18
 348 5 341 -1.34711147906e-15 330 0 c 10
 50 0 l 18
 39 0 32 6 32 14 c 10
32 1034 m 10
 32 1035 l 18
 32 1044 39 1050 50 1050 c 10
 330 1050 l 18
 341 1050 348 1044 348 1035 c 10
 348 1034 l 18
 348 1025 341 1020 330 1020 c 10
 50 1020 l 18
 39 1020 32 1025 32 1034 c 10
189 1403 m 10
 191 1403 l 18
 201 1403 205 1396 205 1385 c 10
 205 -345 l 22
 205 -356 200 -363 191 -363 c 14
 189 -363 l 22
 180 -363 175 -356 175 -345 c 14
 175 1385 l 18
 175 1396 179 1403 189 1403 c 10
EndSplineSet
EndChar

StartChar: perthousand
Encoding: 8240 8240 126
Width: 947
VWidth: 2048
Flags: HMW
LayerCount: 2
Fore
SplineSet
647 185 m 262
 647 442 l 262
 647 567 662 631 750 631 c 260
 838 631 857 567 857 442 c 262
 857 185 l 262
 857 60 838 -5 750 -5 c 260
 662 -5 647 60 647 185 c 262
677 175 m 262
 677 90 686 25 750 25 c 260
 814 25 827 90 827 175 c 262
 827 452 l 262
 827 537 814 601 750 601 c 260
 686 601 677 537 677 452 c 262
 677 175 l 262
90 985 m 262
 90 1216 l 262
 90 1341 104 1405 192 1405 c 260
 280 1405 300 1341 300 1216 c 262
 300 985 l 262
 300 860 280 795 192 795 c 260
 104 795 90 860 90 985 c 262
120 975 m 262
 120 890 128 825 192 825 c 260
 256 825 270 890 270 975 c 262
 270 1226 l 262
 270 1311 256 1375 192 1375 c 260
 128 1375 120 1311 120 1226 c 262
 120 975 l 262
377 185 m 262
 377 442 l 262
 377 567 392 631 480 631 c 260
 568 631 587 567 587 442 c 262
 587 185 l 262
 587 60 568 -5 480 -5 c 260
 392 -5 377 60 377 185 c 262
407 175 m 262
 407 90 416 25 480 25 c 260
 544 25 557 90 557 175 c 262
 557 452 l 262
 557 537 544 601 480 601 c 260
 416 601 407 537 407 452 c 262
 407 175 l 262
611 1388 m 6
 97 18 l 6
 91.4910383368 3.31658078094 85 -3 77 -3 c 6
 75 -3 l 6
 67 -3 61.4910383368 3.31658078094 67 18 c 6
 581 1388 l 6
 584.535613755 1397.4237176 587 1404 597 1404 c 6
 598 1404 l 6
 607 1404 614.535613755 1397.4237176 611 1388 c 6
EndSplineSet
EndChar

StartChar: uni2031
Encoding: 8241 8241 127
Width: 1217
VWidth: 2048
Flags: HMW
LayerCount: 2
Fore
SplineSet
917 185 m 262
 917 442 l 262
 917 567 932 631 1020 631 c 260
 1108 631 1127 567 1127 442 c 262
 1127 185 l 262
 1127 60 1108 -5 1020 -5 c 260
 932 -5 917 60 917 185 c 262
947 175 m 262
 947 90 956 25 1020 25 c 260
 1084 25 1097 90 1097 175 c 262
 1097 452 l 262
 1097 537 1084 601 1020 601 c 260
 956 601 947 537 947 452 c 262
 947 175 l 262
647 185 m 258
 647 442 l 258
 647 567 662 631 750 631 c 256
 838 631 857 567 857 442 c 258
 857 185 l 258
 857 60 838 -5 750 -5 c 256
 662 -5 647 60 647 185 c 258
677 175 m 258
 677 90 686 25 750 25 c 256
 814 25 827 90 827 175 c 258
 827 452 l 258
 827 537 814 601 750 601 c 256
 686 601 677 537 677 452 c 258
 677 175 l 258
90 985 m 258
 90 1216 l 258
 90 1341 104 1405 192 1405 c 256
 280 1405 300 1341 300 1216 c 258
 300 985 l 258
 300 860 280 795 192 795 c 256
 104 795 90 860 90 985 c 258
120 975 m 258
 120 890 128 825 192 825 c 256
 256 825 270 890 270 975 c 258
 270 1226 l 258
 270 1311 256 1375 192 1375 c 256
 128 1375 120 1311 120 1226 c 258
 120 975 l 258
377 185 m 258
 377 442 l 258
 377 567 392 631 480 631 c 256
 568 631 587 567 587 442 c 258
 587 185 l 258
 587 60 568 -5 480 -5 c 256
 392 -5 377 60 377 185 c 258
407 175 m 258
 407 90 416 25 480 25 c 256
 544 25 557 90 557 175 c 258
 557 452 l 258
 557 537 544 601 480 601 c 256
 416 601 407 537 407 452 c 258
 407 175 l 258
611 1388 m 2
 97 18 l 2
 91.4910383368 3.31658078094 85 -3 77 -3 c 2
 75 -3 l 2
 67 -3 61.4910383368 3.31658078094 67 18 c 2
 581 1388 l 2
 584.535613755 1397.4237176 587 1404 597 1404 c 2
 598 1404 l 2
 607 1404 614.535613755 1397.4237176 611 1388 c 2
EndSplineSet
EndChar

StartChar: fraction
Encoding: 8260 8260 128
Width: 500
VWidth: 1920
Flags: HMW
LayerCount: 2
Fore
SplineSet
406 1291 m 2
 410 1290 l 2
 419.176757812 1287.70605469 421.116660586 1277.24482856 418 1266 c 2
 117 180 l 2
 112.553081348 163.955635696 104.799804688 155.400390625 94 159 c 2
 91 160 l 2
 78.099609375 164.299804688 81.2338280977 180.764752111 86 198 c 2
 383 1272 l 6
 387.137527634 1286.96196862 395.463005515 1293.63424862 406 1291 c 2
EndSplineSet
EndChar

StartChar: uni2074
Encoding: 8308 8308 129
Width: 269
VWidth: 1920
Flags: HMW
LayerCount: 2
Fore
SplineSet
247 882 m 2
 247 880 l 2
 247 873 240 868 231 868 c 2
 187 868 l 1
 187 643 l 6
 187 634 181 627 174 627 c 2
 170 627 l 6
 163 627 157 634 157 643 c 6
 157 868 l 1
 40 868 l 2
 28 868 17 874 17 886 c 2
 17 888 l 2
 17 890 18.1596972948 897.958286177 20 905 c 2
 164 1456 l 2
 166.457443955 1465.40313624 169 1473 176 1473 c 2
 177 1473 l 2
 184 1473 187 1467 187 1457 c 2
 187 894 l 1
 231 894 l 2
 240 894 247 889 247 882 c 2
158 894 m 1
 158 1357 l 1
 39 894 l 1
 158 894 l 1
EndSplineSet
EndChar

StartChar: uni2073
Encoding: 8307 8307 130
Width: 305
VWidth: 1920
Flags: HMW
LayerCount: 2
Fore
SplineSet
67 878 m 6
 68 878 l 6
 75 878 82 871 82 861 c 6
 82 730 l 2
 82 680 100 651 146 651 c 0
 190 651 210 679 210 737 c 2
 210 968 l 2
 210 1016 197 1045 140 1045 c 2
 126 1045 l 2
 117 1045 110 1051 110 1058 c 2
 110 1059 l 2
 110 1066 117 1071 126 1071 c 2
 134 1071 l 2
 184 1071 194 1096 194 1141 c 2
 194 1374 l 2
 194 1421 184 1448 143 1448 c 0
 102 1448 92 1417 92 1364 c 2
 92 1214 l 2
 92 1205 85 1198 78 1198 c 2
 77 1198 l 2
 70 1198 63 1205 63 1214 c 2
 63 1364 l 2
 63 1434 81 1475 143 1475 c 0
 205 1475 224 1442 224 1373 c 2
 224 1152 l 2
 224 1076 199 1055 135 1055 c 1
 141 1064 l 1
 217 1064 239 1036 239 960 c 2
 239 736 l 2
 239 663 215 625 145 625 c 0
 80 625 53 660 53 729 c 2
 53 861 l 6
 53 871 60 878 67 878 c 6
EndSplineSet
EndChar

StartChar: uni2072
Encoding: 8306 8306 131
Width: 251
VWidth: 1920
Flags: HMW
LayerCount: 2
Fore
SplineSet
52 714 m 2
 52 927 174 1037 174 1217 c 2
 174 1321 l 2
 174 1424 168 1456 133 1456 c 0
 95 1456 88 1399 88 1322 c 2
 88 1138 l 2
 88 1128 81 1120 74 1120 c 2
 73 1120 l 2
 66 1120 59 1128 59 1138 c 2
 59 1321 l 2
 59 1430 76 1482 133 1482 c 0
 192 1482 203 1440 203 1318 c 2
 203 1240 l 2
 203 1025 81 914 81 729 c 2
 81 665 l 1
 201 665 l 2
 208 665 217 660 217 651 c 2
 217 650 l 2
 217 641 208 637 201 637 c 2
 75 637 l 2
 62 637 52 647 52 660 c 2
 52 714 l 2
EndSplineSet
EndChar

StartChar: uni2070
Encoding: 8304 8304 132
Width: 335
VWidth: 1920
Flags: HMW
LayerCount: 2
Fore
SplineSet
86 777 m 2
 86 1323 l 2
 86 1421 96 1475 168 1475 c 0
 240 1475 248 1421 248 1323 c 2
 248 777 l 2
 248 679 240 625 168 625 c 0
 96 625 86 679 86 777 c 2
116 783 m 2
 116 709 119 651 168 651 c 0
 217 651 218 709 218 783 c 2
 218 1317 l 2
 218 1391 217 1450 168 1450 c 0
 119 1450 116 1391 116 1317 c 2
 116 783 l 2
EndSplineSet
EndChar

StartChar: uni2075
Encoding: 8309 8309 133
Width: 327
VWidth: 1920
Flags: HMW
LayerCount: 2
Fore
SplineSet
104 844 m 2
 106 844 l 2
 113 844 119 841 119 829 c 4
 119 683 131 643 161 643 c 0
 196 643 206 707 206 815 c 2
 206 990 l 2
 206 1120 196 1159 173 1159 c 0
 149 1159 140 1128.31948963 131 1028 c 0
 130.195809399 1019.03600103 127 1010 115 1010 c 2
 113 1010 l 2
 106 1010 98.4772092423 1018.97581257 99 1031 c 2
 117 1445 l 2
 117.437789154 1455.06915054 124 1463 142 1463 c 2
 247 1463 l 2
 255 1463 259 1459 259 1454 c 2
 259 1453 l 2
 259 1440 250 1437 198 1437 c 2
 144 1437 l 1
 124 1037 l 1
 119 1037 l 1
 123 1105 135 1186 179 1186 c 0
 224 1186 235 1136 235 982 c 2
 235 801 l 2
 235 669 216 618 162 618 c 0
 110 618 91 652.989189505 91 828 c 4
 91 840 97 844 104 844 c 2
EndSplineSet
EndChar

StartChar: uni2076
Encoding: 8310 8310 134
Width: 318
VWidth: 1920
Flags: HMW
LayerCount: 2
Fore
SplineSet
170 1081 m 0
 127 1081 106 1041 106 986 c 2
 106 966 l 1
 98 995 l 1
 98 1065 120 1107 175 1107 c 0
 233 1107 252 1067 252 975 c 2
 252 754 l 2
 252 669 236 625 167 625 c 0
 79 625 77 681 77 790 c 2
 77 1303 l 2
 77 1423 88 1475 158 1475 c 0
 228 1475 235 1424 235 1344 c 2
 235 1213 l 6
 235 1204 231 1197 223 1197 c 6
 221 1197 l 6
 213 1197 207 1204 207 1213 c 6
 207 1343 l 2
 207 1410 204 1449 159 1449 c 0
 115 1449 106 1410 106 1301 c 2
 106 758 l 2
 106 687 113 652 166 652 c 0
 213 652 222 688 222 756 c 2
 222 976 l 2
 222 1055 207 1081 170 1081 c 0
EndSplineSet
EndChar

StartChar: uni2077
Encoding: 8311 8311 135
Width: 221
VWidth: 1920
Flags: HMW
LayerCount: 2
Fore
SplineSet
186 1448 m 2
 80 650 l 2
 78.4162071038 638.076728951 72 629 65 629 c 6
 63 629 l 6
 56 629 49.320818688 638.095803913 51 650 c 2
 163 1444 l 1
 27 1444 l 2
 18 1444 11 1450 11 1457 c 2
 11 1459 l 2
 11 1466 18 1472 27 1472 c 2
 167 1472 l 2
 179 1472 187.583680605 1459.92242569 186 1448 c 2
EndSplineSet
EndChar

StartChar: uni2078
Encoding: 8312 8312 136
Width: 281
VWidth: 1920
Flags: HMW
LayerCount: 2
Fore
SplineSet
138 658 m 4
 181 658 190 683 190 740 c 6
 190 969 l 6
 190 1018 185 1048 138 1048 c 4
 91 1048 86 1018 86 969 c 6
 86 740 l 6
 86 683 95 658 138 658 c 4
138 1074 m 4
 168 1074 183 1099 183 1148 c 6
 183 1382 l 6
 183 1433 167 1456 138 1456 c 4
 109 1456 91 1433 91 1382 c 6
 91 1148 l 6
 91 1099 108 1074 138 1074 c 4
147 1065 m 5
 209 1065 219 1028 219 958 c 6
 219 742 l 6
 219 667 209 632 138 632 c 4
 68 632 56 667 56 742 c 6
 56 958 l 6
 56 1028 66 1065 128 1065 c 5
 129 1058 l 5
 83 1060 62 1088 62 1159 c 6
 62 1380 l 6
 62 1447 80 1482 138 1482 c 4
 197 1482 212 1447 212 1380 c 6
 212 1159 l 6
 212 1088 192 1060 146 1058 c 5
 147 1065 l 5
EndSplineSet
EndChar

StartChar: uni2079
Encoding: 8313 8313 137
Width: 256
VWidth: 1920
Flags: HMW
LayerCount: 2
Fore
SplineSet
123 1019 m 0
 165 1019 186 1059 186 1114 c 2
 186 1135 l 1
 195 1105 l 1
 195 1035 172 994 119 994 c 0
 61 994 43 1033 43 1125 c 2
 43 1347 l 2
 43 1432 58 1475 127 1475 c 0
 215 1475 216 1420 216 1311 c 2
 216 798 l 2
 216 678 201 625 131 625 c 0
 61 625 46 677 46 757 c 2
 46 888 l 6
 46 895 51 904 59 904 c 6
 60 904 l 6
 68 904 74 895 74 888 c 6
 74 757 l 2
 74 690 85 652 130 652 c 0
 174 652 186 690 186 799 c 2
 186 1342 l 2
 186 1413 180 1449 128 1449 c 0
 82 1449 72 1412 72 1344 c 2
 72 1125 l 2
 72 1046 86 1019 123 1019 c 0
EndSplineSet
EndChar

StartChar: uni00B9
Encoding: 185 185 138
Width: 258
VWidth: 1920
Flags: HMW
LayerCount: 2
Fore
SplineSet
118 1465 m 0
 126 1469 128 1478 129 1501 c 0
 129 1505 129 1506 133 1506 c 2
 140 1506 l 2
 144 1506 144 1505 144 1501 c 2
 144 645 l 2
 144 641 143 640 139 640 c 2
 119 640 l 2
 115 640 114 641 114 645 c 2
 114 1459 l 2
 114 1463 116 1464 118 1465 c 0
EndSplineSet
EndChar

StartChar: cent
Encoding: 162 162 154
Width: 317
VWidth: 1920
Flags: HMW
LayerCount: 2
Fore
SplineSet
162 1243 m 2
 164 1243 l 2
 171 1243 173 1235 173 1226 c 2
 173 -176 l 6
 173 -187 170 -193 164 -193 c 6
 162 -193 l 6
 155 -193 153 -187 153 -176 c 6
 153 1226 l 2
 153 1235 155 1243 162 1243 c 2
EndSplineSet
Refer: 40 99 N 1 0 0 1 0 0 2
EndChar

StartChar: uni203D
Encoding: 8253 8253 157
Width: 396
VWidth: 1920
Flags: HMW
LayerCount: 2
Fore
SplineSet
181 950 m 2
 181 1170 l 2
 181 1182 185 1193 195 1193 c 2
 197 1193 l 2
 207 1193 211 1182 211 1170 c 2
 211 950 l 2
 211 943 212 857 211 850 c 2
 207 410 l 2
 207 403 204 400 197 400 c 2
 195 400 l 2
 188 400 185 403 185 410 c 2
 183 850 l 2
 183 857 181 943 181 950 c 2
203 -3 m 258
 199 -3 l 258
 186 -3 177 6 177 18 c 258
 177 192 l 258
 177 204 186 213 199 213 c 258
 203 213 l 258
 216 213 223 204 223 192 c 258
 223 18 l 258
 223 6 216 -3 203 -3 c 258
202 400 m 2
 196 400 l 2
 192 400 194 401 194 404 c 0
 193 585 276 645 276 982 c 258
 276 1183 l 258
 276 1283 256 1387 198 1387 c 256
 128 1387 120 1271 120 1175 c 258
 120 967 l 2
 120 957 116 949 107 949 c 2
 105 949 l 2
 96 949 90 957 90 967 c 2
 90 1175 l 258
 90 1287 104 1417 198 1417 c 256
 286 1417 306 1295 306 1185 c 258
 306 994 l 258
 306 687 207 557 208 404 c 0
 208 401 205 400 202 400 c 2
EndSplineSet
EndChar

StartChar: ordfeminine
Encoding: 170 170 159
Width: 364
VWidth: 1920
Flags: HMW
LayerCount: 2
Fore
SplineSet
105 834 m 0
 105 730 119 669 153 669 c 256
 195 669 229 806 229 952 c 257
 239 902 l 257
 239 759 209 639 153 639 c 256
 101 639 75 699 75 834 c 0
 75 985 91 1035 160 1096 c 256
 196 1128 229 1159 229 1242 c 257
 239 1202 l 257
 239 1139 212 1113 168 1071 c 256
 129 1034 105 964 105 834 c 0
229 852 m 258
 229 1262 l 258
 229 1342 227 1459 179 1459 c 256
 129 1459 131 1362 131 1236 c 0
 131 1223 125 1214 116 1214 c 2
 114 1214 l 2
 105 1214 100.006191774 1223.03804239 101 1236 c 0
 112 1379.46986675 91 1489 179 1489 c 256
 254 1489 259 1395 259 1187 c 258
 259 852 l 258
 259 758 268.799690205 705.013129165 284 661 c 0
 287.662194014 650.395964928 282 641 274 641 c 2
 273 641 l 2
 263 641 257.357537454 650.232807916 254 660 c 0
 238.504944414 705.075650333 229 757 229 852 c 258
EndSplineSet
EndChar

StartChar: exclamdown
Encoding: 161 161 160
Width: 275
VWidth: 1920
Flags: HMW
LayerCount: 2
Fore
SplineSet
134 1053 m 262
 138 1053 l 262
 151 1053 160 1044 160 1032 c 262
 160 858 l 262
 160 846 151 837 138 837 c 262
 134 837 l 262
 121 837 114 846 114 858 c 262
 114 1032 l 262
 114 1044 121 1053 134 1053 c 262
152 100 m 6
 152 -385 l 6
 152 -394 148 -403 138 -403 c 6
 136 -403 l 6
 126 -403 122 -394 122 -385 c 6
 122 100 l 6
 122 107 121.931640625 192.991210938 122 200 c 6
 126 610 l 6
 126 617 130 623 137 623 c 6
 138 623 l 6
 145 623 148 617 148 610 c 6
 150 200 l 6
 150.034179688 193 152 107 152 100 c 6
EndSplineSet
EndChar

StartChar: AE
Encoding: 198 198 161
Width: 749
VWidth: 1920
Flags: HMW
LayerCount: 2
Fore
SplineSet
179 465 m 25
 399 465 l 25
 399 435 l 25
 179 435 l 25
 179 465 l 25
413 1400 m 1
 92 14 l 2
 89.7509793546 4.28927534427 85 -3 76 -3 c 2
 75 -3 l 2
 66 -3 60.6550821771 3.84867843437 63 14 c 2
 376 1369 l 2
 380.149927317 1386.9653403 387 1400 404 1400 c 2
 413 1400 l 1
EndSplineSet
Refer: 16 69 N 1 0 0 1 309 0 2
EndChar

StartChar: questiondown
Encoding: 191 191 162
Width: 396
VWidth: 1920
Flags: HMW
LayerCount: 2
Fore
SplineSet
205 1053 m 262
 209 1053 l 262
 222 1053 231 1044 231 1032 c 262
 231 858 l 262
 231 846 222 837 209 837 c 262
 205 837 l 262
 192 837 185 846 185 858 c 262
 185 1032 l 262
 185 1044 192 1053 205 1053 c 262
206 653 m 6
 207 653 l 6
 213 653 214 649 214 646 c 4
 215 465 120 405 120 68 c 262
 120 -183 l 262
 120 -283 140 -387 198 -387 c 260
 268 -387 276 -271 276 -175 c 262
 276 83 l 6
 276 95 279 102 289 102 c 6
 291 102 l 6
 301 102 306 95 306 83 c 6
 306 -175 l 262
 306 -287 292 -417 198 -417 c 260
 110 -417 90 -295 90 -185 c 262
 90 56 l 262
 90 363 201 493 200 646 c 4
 200 649 201 653 206 653 c 6
EndSplineSet
EndChar

StartChar: yen
Encoding: 165 165 163
Width: 390
VWidth: 1920
Flags: HMW
LayerCount: 2
Fore
SplineSet
7 499 m 10
 7 500 l 18
 7 509 14 514 25 514 c 10
 365 514 l 18
 376 514 383 508 383 499 c 10
 383 498 l 18
 383 489 376 484 365 484 c 10
 25 484 l 18
 14 484 7 490 7 499 c 10
7 626 m 10
 7 627 l 18
 7 636 14 641 25 641 c 10
 365 641 l 18
 376 641 383 635 383 626 c 10
 383 625 l 18
 383 616 376 611 365 611 c 10
 25 611 l 18
 14 611 7 617 7 626 c 10
EndSplineSet
Refer: 36 89 N 1 0 0 1 0 0 2
EndChar

StartChar: gravecomb
Encoding: 768 768 164
Width: 0
Flags: HMW
AnchorPoint: "top" -611 1000 mark 0
LayerCount: 2
Fore
SplineSet
-607 1101 m 6
 -608 1101 l 6
 -613 1101 -617.684570312 1105.53710938 -624 1121 c 6
 -731 1383 l 6
 -735.8359375 1394.83984375 -726 1403 -717 1403 c 6
 -716 1403 l 6
 -706 1403 -702.053710938 1395.8828125 -697 1382 c 6
 -601 1121 l 6
 -596.073242188 1107.60546875 -602 1101 -607 1101 c 6
EndSplineSet
EndChar

StartChar: acutecomb
Encoding: 769 769 165
Width: 0
Flags: HMW
AnchorPoint: "top" -548 1000 mark 0
LayerCount: 2
Fore
SplineSet
-543 1101 m 6
 -548 1101 -554 1108 -549 1121 c 6
 -453 1382 l 6
 -448 1396 -444 1403 -434 1403 c 6
 -433 1403 l 6
 -424 1403 -414 1395 -419 1383 c 6
 -526 1121 l 6
 -532 1106 -537 1101 -542 1101 c 6
 -543 1101 l 6
EndSplineSet
EndChar

StartChar: uni0302
Encoding: 770 770 166
Width: 0
VWidth: 1920
Flags: HMW
AnchorPoint: "top" -557 1000 mark 0
LayerCount: 2
Fore
SplineSet
-558 1371 m 261
 -650 1110 l 6
 -653.356375269 1100.47810929 -657 1097 -665 1097 c 6
 -667 1097 l 6
 -674 1097 -679.128777983 1101.41119769 -676 1110 c 6
 -574 1390 l 6
 -571 1398 -567 1403 -559 1403 c 6
 -557 1403 l 6
 -549 1403 -543 1398 -540 1390 c 6
 -434 1110 l 6
 -432 1104 -434 1097 -442 1097 c 6
 -444 1097 l 6
 -453 1097 -456.462039241 1100.57747186 -460 1110 c 6
 -558 1371 l 261
EndSplineSet
EndChar

StartChar: tildecomb
Encoding: 771 771 167
Width: 0
Flags: HMW
AnchorPoint: "top" -572 1000 mark 0
LayerCount: 2
Fore
SplineSet
-632 1267 m 256
 -683 1267 -679 1190.06055051 -682 1167 c 4
 -683.677068055 1154.10862914 -689 1145 -697 1145 c 6
 -699 1145 l 6
 -708 1145 -712.66559837 1154.01705046 -712 1167 c 4
 -708 1245.02272434 -687 1297 -632 1297 c 256
 -558 1297 -549 1164 -498 1164 c 256
 -447 1164 -450 1240.93756092 -447 1263 c 0
 -445.113671201 1276.87233807 -441 1286 -433 1286 c 2
 -432 1286 l 2
 -423 1286 -417.283201755 1276.98163797 -418 1263 c 0
 -422 1184.97727566 -443 1134 -498 1134 c 256
 -572 1134 -581 1267 -632 1267 c 256
EndSplineSet
EndChar

StartChar: uni0304
Encoding: 772 772 168
Width: 0
VWidth: 1920
Flags: HMW
AnchorPoint: "top" -560 1000 mark 0
LayerCount: 2
Fore
SplineSet
-698 1180 m 14
 -698 1182 l 22
 -698 1191 -691 1196 -680 1196 c 14
 -440 1196 l 22
 -429 1196 -422 1191 -422 1182 c 14
 -422 1180 l 22
 -422 1171 -429 1166 -440 1166 c 14
 -680 1166 l 22
 -691 1166 -698 1171 -698 1180 c 14
EndSplineSet
EndChar

StartChar: uni0306
Encoding: 774 774 169
Width: 0
VWidth: 1920
Flags: HMW
AnchorPoint: "top" -560 1000 mark 0
LayerCount: 2
Fore
SplineSet
-560 1171 m 4
 -505 1171 -466 1207 -466 1257 c 4
 -466 1268 -461 1275 -452 1275 c 6
 -450 1275 l 6
 -441 1275 -435 1268 -435 1255 c 4
 -435 1197.88741321 -468 1141 -560 1141 c 4
 -652 1141 -685 1198.9375271 -685 1257 c 4
 -685 1268 -679 1275 -670 1275 c 6
 -668 1275 l 6
 -659 1275 -654 1268 -654 1256 c 4
 -654 1205 -614 1171 -560 1171 c 4
EndSplineSet
EndChar

StartChar: uni0307
Encoding: 775 775 170
Width: 0
Flags: HMW
AnchorPoint: "top" -548 1000 mark 0
LayerCount: 2
Fore
SplineSet
-548 1159 m 6
 -552 1159 l 6
 -572 1159 -587 1173 -587 1193 c 6
 -587 1197 l 6
 -587 1216 -572 1231 -552 1231 c 6
 -548 1231 l 6
 -528 1231 -513 1216 -513 1197 c 6
 -513 1193 l 6
 -513 1173 -528 1159 -548 1159 c 6
EndSplineSet
EndChar

StartChar: uni0308
Encoding: 776 776 171
Width: 0
Flags: HMW
AnchorPoint: "top" -548 1000 mark 0
LayerCount: 2
Fore
SplineSet
-618 1159 m 2
 -622 1159 l 2
 -642 1159 -657 1173 -657 1193 c 2
 -657 1197 l 2
 -657 1216 -642 1231 -622 1231 c 2
 -618 1231 l 2
 -598 1231 -583 1216 -583 1197 c 2
 -583 1193 l 2
 -583 1173 -598 1159 -618 1159 c 2
-473 1159 m 2
 -477 1159 l 2
 -497 1159 -512 1173 -512 1193 c 2
 -512 1197 l 2
 -512 1216 -497 1231 -477 1231 c 2
 -473 1231 l 2
 -453 1231 -438 1216 -438 1197 c 2
 -438 1193 l 2
 -438 1173 -453 1159 -473 1159 c 2
EndSplineSet
EndChar

StartChar: uni030A
Encoding: 778 778 172
Width: 0
Flags: HMW
AnchorPoint: "top" -554 1000 mark 0
LayerCount: 2
Fore
SplineSet
-458 1212 m 0
 -458 1160 -502 1117 -554 1117 c 0
 -607 1117 -652 1159 -652 1212 c 0
 -652 1263 -607 1307 -554 1307 c 0
 -501 1307 -458 1266 -458 1212 c 0
-488 1212 m 0
 -488 1250 -517 1277 -554 1277 c 0
 -591 1277 -622 1247 -622 1212 c 0
 -622 1175 -591 1147 -554 1147 c 0
 -518 1147 -488 1177 -488 1212 c 0
EndSplineSet
EndChar

StartChar: uni030B
Encoding: 779 779 173
Width: 0
Flags: HMW
AnchorPoint: "top" -542 1000 mark 0
LayerCount: 2
Fore
SplineSet
-473 1101 m 6
 -478 1101 -484 1108 -479 1121 c 6
 -383 1382 l 6
 -378 1396 -374 1403 -364 1403 c 6
 -363 1403 l 6
 -354 1403 -344 1395 -349 1383 c 6
 -456 1121 l 6
 -462 1106 -467 1101 -472 1101 c 6
 -473 1101 l 6
-603 1101 m 6
 -608 1101 -614 1108 -609 1121 c 6
 -513 1382 l 6
 -508 1396 -504 1403 -494 1403 c 6
 -493 1403 l 6
 -484 1403 -474 1395 -479 1383 c 6
 -586 1121 l 6
 -592 1106 -597 1101 -602 1101 c 6
 -603 1101 l 6
EndSplineSet
EndChar

StartChar: uni030C
Encoding: 780 780 174
Width: 0
Flags: HMW
AnchorPoint: "top" -554 1000 mark 0
LayerCount: 2
Fore
SplineSet
-552 1149 m 261
 -460 1410 l 6
 -456.643554688 1419.52148438 -453 1423 -445 1423 c 6
 -443 1423 l 6
 -436 1423 -430.87109375 1418.58886719 -434 1410 c 6
 -536 1130 l 6
 -539 1122 -543 1117 -551 1117 c 6
 -553 1117 l 6
 -561 1117 -567 1122 -570 1130 c 6
 -676 1410 l 6
 -678 1416 -676 1423 -668 1423 c 6
 -666 1423 l 6
 -657 1423 -653.538085938 1419.42285156 -650 1410 c 6
 -552 1149 l 261
EndSplineSet
EndChar

StartChar: uni030F
Encoding: 783 783 175
Width: 0
Flags: HMW
AnchorPoint: "top" -571 1000 mark 0
LayerCount: 2
Fore
SplineSet
-497 1101 m 2
 -498 1101 l 2
 -503 1101 -508 1106 -514 1121 c 2
 -621 1383 l 2
 -626 1395 -616 1403 -607 1403 c 2
 -606 1403 l 2
 -596 1403 -592 1396 -587 1382 c 2
 -491 1121 l 2
 -486 1108 -492 1101 -497 1101 c 2
-627 1101 m 6
 -628 1101 l 6
 -633 1101 -638 1106 -644 1121 c 6
 -751 1383 l 6
 -756 1395 -746 1403 -737 1403 c 6
 -736 1403 l 6
 -726 1403 -722 1396 -717 1382 c 6
 -621 1121 l 6
 -616 1108 -622 1101 -627 1101 c 6
EndSplineSet
EndChar

StartChar: uni0311
Encoding: 785 785 176
Width: 0
Flags: HMW
AnchorPoint: "top" -604 1152 mark 0
LayerCount: 2
Fore
SplineSet
-604 1339 m 0
 -659 1339 -698 1303 -698 1253 c 0
 -698 1242 -703 1235 -712 1235 c 2
 -714 1235 l 2
 -723 1235 -729 1242 -729 1255 c 0
 -729 1312 -696 1369 -604 1369 c 0
 -512 1369 -479 1311 -479 1253 c 0
 -479 1242 -485 1235 -494 1235 c 2
 -496 1235 l 2
 -505 1235 -510 1242 -510 1254 c 0
 -510 1305 -550 1339 -604 1339 c 0
EndSplineSet
EndChar

StartChar: dotbelowcomb
Encoding: 803 803 177
Width: 0
Flags: HMW
AnchorPoint: "bottom" -551 0 mark 0
LayerCount: 2
Fore
SplineSet
-548 -291 m 2
 -552 -291 l 2
 -572 -291 -587 -277 -587 -257 c 2
 -587 -253 l 2
 -587 -234 -572 -219 -552 -219 c 2
 -548 -219 l 2
 -528 -219 -513 -234 -513 -253 c 2
 -513 -257 l 2
 -513 -277 -528 -291 -548 -291 c 2
EndSplineSet
EndChar

StartChar: uni0326
Encoding: 806 806 178
Width: 0
Flags: HMW
AnchorPoint: "bottom" -561 0 mark 0
LayerCount: 2
Fore
SplineSet
-598 -373 m 2
 -599 -373 l 2
 -603 -373 -605.996750081 -366.532336692 -602 -359 c 2
 -576 -310 l 257
 -586 -310 l 2
 -599 -310 -605 -295 -605 -282 c 2
 -605 -275 l 2
 -605 -253 -594 -242 -572 -242 c 2
 -565 -242 l 2
 -543 -242 -532 -253 -532 -275 c 2
 -532 -279 l 2
 -532 -301 -539.707341208 -310.522675667 -548 -320 c 2
 -590 -368 l 2
 -593.283185841 -371.752212389 -596 -373 -598 -373 c 2
EndSplineSet
EndChar

StartChar: uni0327
Encoding: 807 807 179
Width: 1200
Flags: HMW
AnchorPoint: "bottom" -511 0 mark 0
LayerCount: 2
Fore
SplineSet
-610 -450 m 0
 -640 -450 -657.844720749 -446.08626625 -685 -431 c 0
 -694 -426 -699.5 -409.5 -694 -404 c 6
 -692 -402 l 6
 -687.137695312 -397.137695312 -676.824662344 -399.58717089 -670 -404 c 0
 -647.500090933 -418.548449242 -635 -421 -610 -421 c 0
 -583 -421 -538 -412 -538 -326 c 0
 -538 -243 -575 -220 -639 -220 c 0
 -646 -220 -650.2 -219.6 -652 -216 c 2
 -653 -214 l 2
 -655.055664062 -209.888671875 -653.119307465 -205.772379218 -648 -198 c 2
 -511 10 l 1
 -482 10 l 1
 -627 -206 l 1
 -619 -204 -604 -204 -596 -204 c 0
 -553 -204 -508 -236 -508 -326 c 0
 -508 -420 -553 -450 -610 -450 c 0
EndSplineSet
EndChar

StartChar: uni0328
Encoding: 808 808 180
Width: 1200
Flags: HMW
AnchorPoint: "ogonek" -536 0 mark 0
LayerCount: 2
Fore
SplineSet
-534 -357 m 6
 -534 -359 l 2
 -534 -367 -538 -372 -552 -372 c 2
 -582 -372 l 2
 -676 -372 -732 -311 -732 -212 c 0
 -732 -113 -641 -72 -521 13 c 1
 -512 0 l 1
 -604 -71 -702 -120 -702 -212 c 0
 -702 -293 -656 -342 -576 -342 c 2
 -552 -342 l 2
 -538 -342 -534 -349 -534 -357 c 6
EndSplineSet
EndChar

StartChar: uni0312
Encoding: 786 786 181
Width: 0
Flags: HMW
AnchorPoint: "top" -604 950 mark 0
LayerCount: 2
Fore
SplineSet
-570 1431 m 258
 -569 1431 l 258
 -561 1431 -559 1423 -561 1413 c 266
 -597 1220 l 257
 -595 1220 l 258
 -582 1220 -578 1215 -578 1201 c 258
 -578 1027 l 258
 -578 1015 -585 1007 -598 1007 c 258
 -602 1007 l 258
 -615 1007 -623 1015 -623 1027 c 258
 -623 1182 l 258
 -623 1193 -618 1212 -616 1223 c 258
 -584 1411 l 258
 -581 1426 -577 1431 -570 1431 c 258
EndSplineSet
EndChar

StartChar: sterling
Encoding: 163 163 182
Width: 470
VWidth: 1920
Flags: HMW
LayerCount: 2
Fore
SplineSet
62 699 m 10
 62 700 l 18
 62 709 71 715 80 715 c 10
 300 715 l 18
 309 715 318 709 318 700 c 10
 318 699 l 18
 318 690 309 685 300 685 c 10
 80 685 l 18
 71 685 62 690 62 699 c 10
86 34 m 0
 138.868412023 88.5338320067 204 362 204 597 c 0
 204 796 110 907 110 1141 c 0
 110 1306 124 1417 238 1417 c 0
 355 1417 364 1285 365 977 c 0
 365.035714097 966.000057977 359 957 350 957 c 6
 348 957 l 6
 340 957 333.136914178 966.000852101 333 977 c 0
 330 1218.00823031 335 1387 238 1387 c 0
 151 1387 140 1281 140 1151 c 0
 140 915 234 810 234 597 c 0
 234 376 168 73 109 30 c 1
 405 30 l 2
 416 30 423 24 423 15 c 2
 423 14 l 2
 423 5 416 -1.34711147906e-15 405 0 c 2
 95 0 l 2
 86 0 77 6 77 15 c 2
 77 16 l 2
 77 22 80.9326180888 28.7729893279 86 34 c 0
EndSplineSet
EndChar

StartChar: currency
Encoding: 164 164 183
Width: 1112
Flags: HMW
LayerCount: 2
Fore
SplineSet
777 936 m 10
 778 935 l 18
 782.5 930.5 783.420203602 920.516992952 778 915 c 10
 722 858 l 18
 720 856 717 856 715 858 c 10
 701 872 l 18
 699 874 699 878 701 880 c 10
 757 936 l 18
 762.5 941.5 772.5 940.5 777 936 c 10
385 557 m 10
 399 543 l 18
 401 541 401 537 399 535 c 10
 348 484 l 18
 339.5 475.5 328 474 323 479 c 10
 322 480 l 18
 317 485 318.607351555 496.442789821 327 505 c 10
 378 557 l 18
 380 559 383 559 385 557 c 10
323 936 m 10
 324 937 l 18
 328.5 941.5 337.5 941.5 343 936 c 10
 399 880 l 18
 401 878 401 874 399 872 c 10
 385 858 l 18
 383 856 380 856 378 858 c 10
 322 915 l 18
 316.518402506 920.579483164 318.5 931.5 323 936 c 10
701 543 m 10
 715 557 l 18
 717 559 720 559 722 557 c 10
 778 500 l 18
 783.420203602 494.483007048 782.5 484.5 778 480 c 10
 777 479 l 18
 772.5 474.5 762.5 473.5 757 479 c 10
 701 535 l 18
 699 537 699 541 701 543 c 10
306 709 m 0
 306 843 418 954 552 954 c 0
 686 954 796 843 796 709 c 0
 796 575 686 464 552 464 c 0
 418 464 306 575 306 709 c 0
336 709 m 0
 336 595 428 494 552 494 c 0
 676 494 766 595 766 709 c 0
 766 823 676 924 552 924 c 0
 428 924 336 823 336 709 c 0
EndSplineSet
EndChar

StartChar: brokenbar
Encoding: 166 166 184
Width: 365
VWidth: 1920
Flags: HMW
LayerCount: 2
Fore
SplineSet
182 433 m 10
 184 433 l 18
 193 433 198 424 198 410 c 10
 198 -340 l 22
 198 -354 193 -363 184 -363 c 14
 182 -363 l 22
 173 -363 168 -354 168 -340 c 14
 168 410 l 18
 168 424 173 433 182 433 c 10
182 1603 m 10
 184 1603 l 18
 193 1603 198 1593 198 1580 c 10
 198 830 l 18
 198 816 193 807 184 807 c 10
 182 807 l 18
 173 807 168 816 168 830 c 10
 168 1580 l 18
 168 1593 173 1603 182 1603 c 10
EndSplineSet
EndChar

StartChar: section
Encoding: 167 167 185
Width: 568
VWidth: 1920
Flags: HMW
LayerCount: 2
Fore
SplineSet
254 890 m 257
 182 890 119 776 119 598 c 256
 119 431 167 344 258 241 c 256
 378 105 410 47 410 -93 c 256
 410 -265 363 -370 269 -370 c 256
 172 -370 140 -267.116634277 132 -67 c 0
 131.56060741 -56.0087792238 139 -45 148 -45 c 6
 149 -45 l 6
 158 -45 163.436368468 -56.0132439962 164 -68 c 0
 172 -238.136059688 197 -340 269 -340 c 256
 343 -340 380 -243 380 -93 c 256
 380 45 324 121 242 212 c 256
 120 347 90 456 90 593 c 256
 90 795 158 900 260 900 c 257
 254 890 l 257
314 145 m 257
 386 145 449 259 449 437 c 256
 449 604 401 691 310 794 c 256
 190 930 158 988 158 1128 c 256
 158 1300 205 1405 299 1405 c 256
 396 1405 428.181292591 1302.08193038 436 1102 c 0
 436.429465871 1091.00990203 430 1080 421 1080 c 2
 420 1080 l 2
 411 1080 404.569592348 1091.01573146 404 1103 c 0
 395.915916826 1273.08975613 371 1375 299 1375 c 256
 225 1375 188 1278 188 1128 c 256
 188 990 244 914 326 823 c 256
 448 688 478 579 478 442 c 256
 478 240 410 135 308 135 c 257
 314 145 l 257
EndSplineSet
EndChar

StartChar: copyright
Encoding: 169 169 186
Width: 844
Flags: HMW
LayerCount: 2
Fore
SplineSet
512 606 m 256
 512 324.393435406 509.369094254 247 414 247 c 256
 331 247 327 327 327 465 c 258
 327 875 l 258
 327 1025 349 1093 423 1093 c 256
 501.991317978 1093 509 996.848045545 509 782 c 256
 509 774 507 765 500 765 c 258
 499 765 l 258
 492 765 491 774 491 782 c 256
 489 988 482 1075 423 1075 c 256
 352 1075 345 995 345 878 c 258
 345 462 l 258
 345 351 347 265 414 265 c 256
 490 265 494 332 494 606 c 256
 494 613 497 617 502 617 c 258
 503 617 l 258
 508 617 512 613 512 606 c 256
769 668 m 0
 769 284 735 -28 421 -28 c 0
 107 -28 75 284 75 668 c 0
 75 1052 107 1366 421 1366 c 0
 735 1366 769 1052 769 668 c 0
739 668 m 0
 739 1006 729 1336 421 1336 c 0
 113 1336 105 1006 105 668 c 0
 105 330 113 2 421 2 c 0
 729 2 739 330 739 668 c 0
EndSplineSet
EndChar

StartChar: registered
Encoding: 174 174 188
Width: 844
Flags: HMW
LayerCount: 2
Fore
SplineSet
365 1102 m 261
 365 712 l 261
 404 712 l 262
 443 712 476 748 476 826 c 262
 476 977 l 262
 476 1049 467 1102 404 1102 c 262
 365 1102 l 261
404 1120 m 262
 478 1120 494 1073 494 971 c 262
 494 838 l 262
 494 730 445 703 404 703 c 261
 404 706 l 261
 445 706 490 689 490 617 c 262
 490 421 l 262
 490 350 500 318 514 298 c 4
 516 294 518 291 518 286 c 6
 518 285 l 6
 518 281 515 279 511 279 c 6
 510 279 l 6
 505 279 503 281 501 283 c 4
 484 307 472 335 472 421 c 262
 472 626 l 262
 472 668 449 697 404 697 c 262
 365 697 l 261
 365 289 l 6
 365 284 363 279 357 279 c 6
 355 279 l 6
 349 279 347 284 347 289 c 6
 347 1105 l 6
 347 1115 352 1120 362 1120 c 6
 404 1120 l 262
769 668 m 0
 769 284 735 -28 421 -28 c 0
 107 -28 75 284 75 668 c 0
 75 1052 107 1366 421 1366 c 0
 735 1366 769 1052 769 668 c 0
739 668 m 0
 739 1006 729 1336 421 1336 c 0
 113 1336 105 1006 105 668 c 0
 105 330 113 2 421 2 c 0
 729 2 739 330 739 668 c 0
EndSplineSet
EndChar

StartChar: dotlessi
Encoding: 305 305 279
Width: 168
VWidth: 1104
Flags: HMW
AnchorPoint: "top" 84 1050 basechar 0
LayerCount: 2
Fore
SplineSet
99 1034 m 258
 99 16 l 258
 99 3 96 -3 85 -3 c 258
 83 -3 l 258
 72 -3 69 3 69 16 c 258
 69 1034 l 258
 69 1047 72 1053 83 1053 c 258
 85 1053 l 258
 96 1053 99 1047 99 1034 c 258
EndSplineSet
EndChar

StartChar: uni0237
Encoding: 567 567 291
Width: 168
VWidth: 1104
Flags: HMW
AnchorPoint: "top" 85 1050 basechar 0
LayerCount: 2
Fore
SplineSet
100 -55 m 6
 100 -174 86.364364733 -219.436436473 -16 -203 c 4
 -25.9227748135 -201.406720363 -35 -198 -35 -189 c 6
 -35 -188 l 6
 -35 -179 -24.9301635684 -175.499273962 -16 -177 c 4
 60.1031823018 -189.789242478 70 -158 70 -74 c 6
 70 1034 l 6
 70 1046 75 1053 84 1053 c 6
 85 1053 l 6
 94 1053 100 1046 100 1034 c 6
 100 -55 l 6
EndSplineSet
EndChar

StartChar: kgreenlandic
Encoding: 312 312 298
Width: 298
VWidth: 1104
Flags: HMW
LayerCount: 2
Fore
SplineSet
84 1053 m 6
 86 1053 l 6
 95 1053 100 1043 100 1034 c 6
 100 16 l 2
 100 5 95 -3 86 -3 c 2
 84 -3 l 2
 75 -3 70 5 70 16 c 2
 70 1034 l 6
 70 1043 76 1053 84 1053 c 6
83 412 m 1
 231 1032 l 2
 234.043750492 1044.75084666 239 1053 248 1053 c 2
 249 1053 l 2
 258 1053 262.28533134 1044.92748722 259 1032 c 2
 90 367 l 1
 83 412 l 1
145 661 m 1
 159 709 l 1
 268 18 l 2
 269.741596201 6.95923876394 266 -3 255 -3 c 2
 254 -3 l 2
 244 -3 238.562360013 7.08046208579 237 18 c 2
 145 661 l 1
EndSplineSet
EndChar

StartChar: grave
Encoding: 96 96 339
Width: 311
VWidth: 0
Flags: HMW
LayerCount: 2
Fore
SplineSet
202 1101 m 6
 201 1101 l 6
 196 1101 191.315021288 1105.53705068 185 1121 c 6
 78 1383 l 6
 73.1644458256 1394.84032891 83 1403 92 1403 c 6
 93 1403 l 6
 103 1403 106.946692713 1395.88329686 112 1382 c 6
 208 1121 l 6
 212.926800884 1107.6052601 207 1101 202 1101 c 6
EndSplineSet
EndChar

StartChar: longs
Encoding: 383 383 352
Width: 217
VWidth: 1104
Flags: HMW
LayerCount: 2
Fore
SplineSet
93 1315 m 6
 93 1434 101.340959288 1473.42354916 195 1462 c 4
 205.964107954 1460.66271291 213 1458 213 1449 c 6
 213 1448 l 6
 213 1440 203.987253332 1436.85730251 192 1438 c 4
 122.513371326 1444.62388572 124 1398 124 1315 c 6
 124 16 l 6
 124 1 118 -3 109 -3 c 6
 107 -3 l 6
 98 -3 93 1 93 16 c 6
 93 1315 l 6
EndSplineSet
EndChar

StartChar: uni0259
Encoding: 601 601 359
Width: 336
VWidth: 1104
Flags: HMW
LayerCount: 2
Fore
SplineSet
69 667 m 0
 74.3100600322 946.021286308 87.3569795464 1060 169 1060 c 4
 242 1060 277 970 277 792 c 2
 277 257 l 2
 277 85 244 -10 168 -10 c 0
 96 -10 77 71 70 226 c 0
 64 352 65 402 65 528 c 0
 65 547 69 553 90 553 c 2
 260 553 l 1
 260 527 l 1
 92 527 l 1
 94 80 114 17 168 17 c 0
 224 17 247 115 247 245 c 2
 247 805 l 2
 247 939 224 1033 168 1033 c 0
 109 1033 98.583984375 932.177734375 90 665 c 0
 89.6142578125 653.0078125 88 644 80 644 c 2
 79 644 l 2
 71 644 68.71484375 652.00390625 69 667 c 0
EndSplineSet
EndChar

StartChar: logicalnot
Encoding: 172 172 373
Width: 600
VWidth: 2048
Flags: HMW
LayerCount: 2
Fore
SplineSet
72 679 m 2
 72 681 l 2
 72 693 82 695 91 695 c 2
 460 695 l 2
 477 695 485 682 485 665 c 2
 485 335 l 6
 485 321 480 312 471 312 c 2
 469 312 l 6
 460 312 455 321 455 335 c 6
 455 665 l 1
 91 665 l 2
 82 665 72 667 72 679 c 2
EndSplineSet
EndChar

StartChar: acute
Encoding: 180 180 374
Width: 311
VWidth: 0
Flags: HMW
LayerCount: 2
Fore
SplineSet
83 1101 m 6
 78 1101 72 1108 77 1121 c 6
 173 1382 l 6
 178 1396 182 1403 192 1403 c 6
 193 1403 l 6
 202 1403 212 1395 207 1383 c 6
 100 1121 l 6
 94 1106 89 1101 84 1101 c 6
 83 1101 l 6
EndSplineSet
EndChar

StartChar: degree
Encoding: 176 176 376
Width: 440
VWidth: 2048
Flags: HMW
LayerCount: 2
Fore
SplineSet
50 1241 m 258
 50 1258 l 258
 50 1353 130 1417 218 1417 c 256
 306 1417 390 1353 390 1258 c 258
 390 1241 l 258
 390 1146 306 1081 218 1081 c 256
 130 1081 50 1146 50 1241 c 258
80 1235 m 262
 80 1165 140 1111 218 1111 c 256
 296 1111 360 1165 360 1235 c 262
 360 1263 l 258
 360 1333 296 1387 218 1387 c 256
 140 1387 80 1333 80 1263 c 258
 80 1235 l 262
EndSplineSet
EndChar

StartChar: plusminus
Encoding: 177 177 377
Width: 576
Flags: HMW
LayerCount: 2
Fore
SplineSet
47 555 m 10
 47 556 l 18
 47 565 55 570 66 570 c 10
 510 570 l 22
 521 570 529 565 529 556 c 14
 529 555 l 22
 529 546 521 540 510 540 c 14
 66 540 l 18
 55 540 47 546 47 555 c 10
47 945 m 10
 47 946 l 18
 47 955 52 960 66 960 c 10
 510 960 l 18
 521 960 529 954 529 946 c 10
 529 945 l 18
 529 936 521 930 510 930 c 10
 66 930 l 18
 52 930 47 936 47 945 c 10
292 1171 m 10
 294 1171 l 18
 303 1171 311 1163 311 1152 c 10
 311 722 l 18
 311 711 303 705 294 705 c 10
 292 705 l 18
 283 705 275 711 275 722 c 10
 275 1152 l 18
 275 1163 283 1171 292 1171 c 10
EndSplineSet
EndChar

StartChar: ae
Encoding: 230 230 379
Width: 497
VWidth: 1104
Flags: HMW
LayerCount: 2
Fore
SplineSet
85 288 m 0
 85 56 111 23 150 23 c 0
 190 23 226 86 226 288 c 1
 238 264 l 1
 238 46 198 -5 142 -5 c 0
 100 -5 55 19 55 282 c 0
 55 467 97 526 150 594 c 0
 187 641 226 679 226 780 c 1
 237 766 l 1
 237 644 196 610 167 571 c 0
 120 508 85 445 85 288 c 0
226 170 m 9
 226 915 l 2
 226 997 207 1023 179 1023 c 0
 132 1023 105 975.049402291 99 732 c 0
 98.8025694354 724.002436548 95 713 86 713 c 2
 85 713 l 2
 76 713 70.8161729969 724.002112302 71 732 c 0
 77 993.046121537 109 1055 181 1055 c 0
 229 1055 246 1011 246 907 c 2
 246 170 l 17
 226 170 l 9
434 388 m 0
 426 109.888910314 422 -10 334 -10 c 0
 261 -10 236 80 236 258 c 2
 236 793 l 2
 236 965 259 1060 335 1060 c 0
 407 1060 426 979 433 824 c 0
 439 698 438 648 438 522 c 0
 438 508 429 497 413 497 c 2
 243 497 l 1
 243 523 l 1
 411 523 l 1
 409 970 389 1033 335 1033 c 0
 279 1033 256 935 256 805 c 2
 256 245 l 2
 256 111 279 17 335 17 c 0
 394 17 403 109.887741407 413 390 c 0
 413.285417959 397.994906916 416 406 423 406 c 2
 424 406 l 2
 431 406 434.25878231 396.99627877 434 388 c 0
EndSplineSet
EndChar

StartChar: paragraph
Encoding: 182 182 380
Width: 492
VWidth: 1920
Flags: HMW
LayerCount: 2
Fore
SplineSet
382 1370 m 1
 382 -345 l 6
 382 -355 377 -363 368 -363 c 6
 366 -363 l 6
 357 -363 352 -355 352 -345 c 6
 352 1370 l 1
 282 1370 l 1
 282 -345 l 6
 282 -355 277 -363 268 -363 c 6
 266 -363 l 6
 257 -363 252 -355 252 -345 c 6
 252 600 l 1
 247 600 l 2
 143 600 50 698 50 968 c 2
 50 1032 l 2
 50 1302 143 1400 247 1400 c 2
 419 1400 l 2
 428 1400 435 1395 435 1385 c 2
 435 1384 l 2
 435 1375 430 1370 419 1370 c 2
 382 1370 l 1
EndSplineSet
EndChar

StartChar: guilsinglleft
Encoding: 8249 8249 381
Width: 630
Flags: HMW
LayerCount: 2
Fore
SplineSet
443 282 m 6
 170 529 l 6
 162.66839659 535.633355466 155 544 155 558 c 6
 155 562 l 6
 155 576 162.328770801 584.835619394 170 591 c 6
 450 816 l 6
 460.709552412 824.605890331 473 817 473 806 c 6
 473 805 l 6
 473 794 464.658284553 787.683355954 450 776 c 6
 179 560 l 261
 443 322 l 6
 465.952160836 301.308279246 473 288 473 280 c 6
 473 279 l 6
 473 272 465.335411471 261.791770574 443 282 c 6
EndSplineSet
EndChar

StartChar: guilsinglright
Encoding: 8250 8250 382
Width: 630
Flags: HMW
LayerCount: 2
Fore
SplineSet
187 823 m 6
 460 576 l 6
 467 569 475 561 475 547 c 6
 475 543 l 6
 475 529 468 520 460 514 c 6
 180 289 l 6
 169 280 157 288 157 299 c 6
 157 300 l 6
 157 311 165 317 180 329 c 6
 451 545 l 261
 187 783 l 6
 164 804 157 817 157 825 c 6
 157 826 l 6
 157 833 165 843 187 823 c 6
EndSplineSet
EndChar

StartChar: mu
Encoding: 181 181 385
Width: 336
VWidth: 1104
Flags: HMW
LayerCount: 2
Fore
SplineSet
86 1053 m 2
 87 1053 l 2
 97 1053 101 1045 101 1034 c 2
 101 -344 l 6
 101 -355 97 -363 87 -363 c 6
 86 -363 l 6
 76 -363 72 -355 72 -344 c 6
 72 1034 l 2
 72 1045 76 1053 86 1053 c 2
253 -3 m 2
 251 -3 l 2
 242 -3 239 4 239 13 c 2
 239 148 l 1
 236 164 l 1
 236 1034 l 2
 236 1045 242 1053 251 1053 c 2
 252 1053 l 2
 261 1053 267 1045 267 1034 c 2
 267 13 l 2
 267 4 262 -3 253 -3 c 2
244 211 m 1
 244 83 211 -10 159 -10 c 0
 100 -10 92 49 92 169 c 2
 92 974 l 2
 92 978 89 990 93 990 c 2
 96 990 l 2
 100 990 101 978 101 974 c 2
 101 169 l 2
 101 87 107 17 157 17 c 0
 205 17 236 124 236 245 c 1
 244 211 l 1
EndSplineSet
EndChar

StartChar: Eth
Encoding: 208 208 387
Width: 406
VWidth: 1920
Flags: HMW
LayerCount: 2
Fore
SplineSet
-43 718 m 10
 -43 720 l 18
 -43 728 -36 734 -27 734 c 10
 219 734 l 18
 229 734 236 728 236 720 c 10
 236 718 l 18
 236 710 229 704 219 704 c 10
 -27 704 l 18
 -36 704 -43 710 -43 718 c 10
EndSplineSet
Refer: 15 68 N 1 0 0 1 0 0 2
EndChar

StartChar: Dcroat
Encoding: 272 272 388
Width: 406
VWidth: 1920
Flags: HMW
LayerCount: 2
Fore
SplineSet
-43 718 m 14
 -43 720 l 22
 -43 728 -36 734 -27 734 c 14
 219 734 l 22
 229 734 236 728 236 720 c 14
 236 718 l 22
 236 710 229 704 219 704 c 14
 -27 704 l 22
 -36 704 -43 710 -43 718 c 14
EndSplineSet
Refer: 15 68 N 1 0 0 1 0 0 2
EndChar

StartChar: thorn
Encoding: 254 254 389
Width: 344
VWidth: 1104
Flags: HMW
LayerCount: 2
Fore
SplineSet
85 1453 m 2
 86 1453 l 2
 95 1453 101 1445 101 1434 c 2
 101 -378 l 2
 101 -389 95 -397 86 -397 c 6
 85 -397 l 6
 76 -397 70 -389 70 -378 c 2
 70 1434 l 2
 70 1445 76 1453 85 1453 c 2
92 829 m 1
 92 990 120 1070 191 1070 c 0
 242 1070 290 1029 290 845 c 2
 290 224 l 2
 290 62 255 -10 189 -10 c 0
 122 -10 90 81 90 242 c 1
 101 245 l 1
 101 124 134 19 187 19 c 0
 237 19 256 109 256 212 c 2
 256 859 l 2
 256 985 229 1041 179 1041 c 0
 128 1041 101 947 101 826 c 1
 92 829 l 1
EndSplineSet
EndChar

StartChar: Thorn
Encoding: 222 222 390
Width: 440
VWidth: 1920
Flags: HMW
LayerCount: 2
Fore
SplineSet
200 1110 m 2
 317 1110 348 1062 348 882 c 2
 348 618 l 2
 348 448 317 400 200 400 c 2
 155 400 l 1
 155 14 l 6
 155 4 151 -3 141 -3 c 6
 139 -3 l 6
 129 -3 125 4 125 14 c 6
 125 1385 l 2
 125 1395 130 1403 140 1403 c 2
 141 1403 l 2
 151 1403 155 1395 155 1385 c 2
 155 1110 l 1
 200 1110 l 2
155 430 m 1
 200 430 l 2
 287 430 318 458 318 608 c 2
 318 892 l 2
 318 1042 287 1080 200 1080 c 2
 155 1080 l 1
 155 430 l 1
EndSplineSet
EndChar

StartChar: divide
Encoding: 247 247 391
Width: 600
VWidth: 2048
Flags: HMW
LayerCount: 2
Fore
SplineSet
47 693 m 10
 47 695 l 18
 47 704 56 709 65 709 c 10
 535 709 l 18
 544 709 554 703 554 695 c 10
 554 693 l 18
 554 685 544 679 535 679 c 10
 65 679 l 18
 56 679 47 684 47 693 c 10
EndSplineSet
Refer: 1 46 N 1 0 0 1 163 930 2
Refer: 1 46 N 1 0 0 1 163 240 2
EndChar

StartChar: multiply
Encoding: 215 215 392
Width: 580
VWidth: 1920
Flags: HMW
LayerCount: 2
Fore
SplineSet
460 544 m 10
 459 543 l 18
 455 539 446.007812462 539.007836952 441 544 c 10
 121 863 l 18
 116.993750031 866.993730438 115 876 120 881 c 10
 122 883 l 18
 127 888 134.993750031 884.993730438 139 881 c 10
 459 562 l 18
 464.007812462 557.007836952 464 548 460 544 c 10
121 543 m 10
 120 544 l 18
 116.5 547.5 115.992187538 557.007836952 121 562 c 10
 441 881 l 18
 445.006249969 884.993730438 454 886 458 882 c 10
 460 880 l 18
 464 876 463.006249969 866.993730438 459 863 c 10
 139 544 l 18
 133.992187538 539.007836952 124.5 539.5 121 543 c 10
EndSplineSet
EndChar

StartChar: Oslash
Encoding: 216 216 393
Width: 415
VWidth: 1920
Flags: HMW
LayerCount: 2
Fore
SplineSet
308 1477 m 6
 309 1477 l 6
 320.556640625 1477 323.677863948 1466.76058341 322 1455 c 6
 106 -59 l 6
 104.581827324 -68.9403399617 101.065429688 -74 94 -74 c 6
 92 -74 l 6
 80.9345703125 -74 77.84 -63.12 79 -55 c 6
 296 1464 l 6
 297.400033312 1473.80023319 301.555664062 1477 308 1477 c 6
EndSplineSet
Refer: 26 79 N 1 0 0 1 0 0 2
EndChar

StartChar: oslash
Encoding: 248 248 394
Width: 349
VWidth: 1920
Flags: HMW
LayerCount: 2
Fore
SplineSet
231 1199 m 2
 232 1199 l 2
 244 1199 247 1189 245 1177 c 2
 126 -59 l 2
 125 -69 121 -74 114 -74 c 2
 112 -74 l 2
 101 -74 98 -63 99 -55 c 2
 219 1186 l 2
 220 1196 225 1199 231 1199 c 2
EndSplineSet
Refer: 52 111 N 1 0 0 1 0 0 2
EndChar

StartChar: germandbls
Encoding: 223 223 396
Width: 453
VWidth: 1920
Flags: HMW
LayerCount: 2
Fore
SplineSet
105 1188 m 2
 105 1362 116 1487 191 1487 c 0
 283 1487 296 1372 296 1205 c 0
 296 1008 266 935 266 815 c 0
 266 566 371 563 371 302 c 0
 371 90 336 3 237 -5 c 0
 226.035739763 -5.88600082719 218 0 218 9 c 2
 218 11 l 2
 218 20 226.149642976 26.191754318 237 28 c 0
 309.005859375 40 341 124 341 302 c 0
 341 545 236 544 236 815 c 0
 236 957 266 1025 266 1205 c 0
 266 1316 261 1457 196 1457 c 0
 141 1457 136 1301 136 1168 c 2
 136 15 l 2
 136 4 129 -3 121 -3 c 2
 119 -3 l 2
 111 -3 105 4 105 15 c 2
 105 1188 l 2
  Spiro
    105 1188 ]
    110.616 1342.72 o
    135.409 1448.22 o
    191 1487 o
    259.064 1451.07 o
    289.238 1352.21 o
    296 1205 o
    288.236 1043.13 o
    273.764 925.559 o
    266 815 o
    293.176 629.474 o
    343.824 495.522 o
    371 302 o
    358.286 130.097 o
    315.681 30.9713 o
    237 -5 o
    227.21 -3.76737 o
    220.485 1.18 o
    218 9 [
    218 11 ]
    220.51 18.9986 o
    227.26 24.7935 o
    237 28 o
    295.919 64.7524 o
    330.061 154.636 o
    341 302 o
    313.824 482.64 o
    263.176 615.703 o
    236 815 o
    243.764 939.109 o
    258.236 1055.57 o
    266 1205 o
    262.306 1319.55 o
    243.006 1416.41 o
    196 1457 o
    156.027 1411.71 o
    139.325 1301.91 o
    136 1168 [
    136 15 ]
    133.893 5.45245 o
    128.438 -0.782109 o
    121 -3 [
    119 -3 ]
    111.821 -0.782109 o
    106.848 5.45245 o
    105 15 [
    0 0 z
  EndSpiro
EndSplineSet
EndChar

StartChar: eth
Encoding: 240 240 397
Width: 372
VWidth: 1920
Flags: HMW
LayerCount: 2
Fore
SplineSet
133 1247 m 10
 132 1249 l 2
 129.400390625 1254.20019531 132.932570829 1263.1036936 142 1269 c 10
 316 1382 l 18
 326.057195958 1388.53139737 331.384765625 1386.61523438 334 1384 c 2
 335 1383 l 18
 341 1377 339.0416084 1366.54139061 329 1360 c 2
 154 1246 l 2
 147.014588859 1241.44429708 136.599609375 1239.79980469 133 1247 c 10
161 1025 m 256
 96 1025 86 909 86 793 c 258
 86 249 l 258
 86 124 101 25 181 25 c 256
 269 25 278 132 278 237 c 258
 278 873 l 258
 278 1236 251.903938795 1372.84934353 103 1437 c 0
 91.8272306436 1441.81344211 88 1454 92 1462 c 2
 93 1464 l 2
 97 1472 104.863908467 1475.07102379 117 1470 c 0
 292.699047278 1396.58476196 308 1203 308 965 c 258
 308 269 l 258
 308 119 299 -5 181 -5 c 256
 85 -5 56 90 56 229 c 258
 56 807 l 258
 56 944 75 1055 153 1055 c 256
 241 1055 285 952 285 855 c 257
 278 767 l 257
 278 825 l 258
 278 917 226 1025 161 1025 c 256
EndSplineSet
EndChar

StartChar: dcroat
Encoding: 273 273 398
Width: 344
VWidth: 1920
Flags: HMW
LayerCount: 2
Fore
SplineSet
133 1255 m 14
 133 1257 l 22
 133 1265 140 1271 149 1271 c 14
 346 1271 l 22
 356 1271 363 1265 363 1257 c 14
 363 1255 l 22
 363 1247 356 1241 346 1241 c 14
 149 1241 l 22
 140 1241 133 1247 133 1255 c 14
EndSplineSet
Refer: 41 100 N 1 0 0 1 0 0 2
EndChar

StartChar: Hbar
Encoding: 294 294 399
Width: 400
VWidth: 1920
Flags: HMW
LayerCount: 2
Fore
SplineSet
-33 1135 m 10
 -33 1137 l 18
 -33 1145 -26 1151 -17 1151 c 10
 416 1151 l 18
 426 1151 433 1145 433 1137 c 10
 433 1135 l 18
 433 1127 426 1121 416 1121 c 10
 -17 1121 l 18
 -26 1121 -33 1127 -33 1135 c 10
EndSplineSet
Refer: 19 72 N 1 0 0 1 0 0 2
EndChar

StartChar: hbar
Encoding: 295 295 400
Width: 336
VWidth: 1920
Flags: HMW
LayerCount: 2
Fore
SplineSet
-1 1280 m 10
 -1 1282 l 18
 -1 1290 6 1296 15 1296 c 10
 232 1296 l 18
 242 1296 249 1290 249 1282 c 10
 249 1280 l 18
 249 1272 242 1266 232 1266 c 10
 15 1266 l 18
 6 1266 -1 1272 -1 1280 c 10
EndSplineSet
Refer: 45 104 N 1 0 0 1 0 0 2
EndChar

StartChar: Lslash
Encoding: 321 321 405
Width: 273
VWidth: 1920
Flags: HMW
LayerCount: 2
Fore
SplineSet
202 951 m 6
 203 949 l 6
 206.6 941.8 202.048497471 930.647723892 194 926 c 6
 -19 803 l 6
 -25.8610215459 799.031068254 -35.2001953125 799.400390625 -40 809 c 6
 -41 811 l 6
 -44.5302734375 818.060546875 -40.8610215459 826.031068254 -34 830 c 6
 179 953 l 6
 190.280571259 959.514132699 198.6 957.8 202 951 c 6
EndSplineSet
Refer: 23 76 N 1 0 0 1 0 0 2
EndChar

StartChar: lslash
Encoding: 322 322 406
Width: 174
VWidth: 1920
Flags: HMW
LayerCount: 2
Fore
SplineSet
202 951 m 6
 203 949 l 6
 206.6 941.8 202.048497471 930.647723892 194 926 c 6
 -19 803 l 6
 -25.8610215459 799.031068254 -35.2001953125 799.400390625 -40 809 c 6
 -41 811 l 6
 -44.5302734375 818.060546875 -40.8610215459 826.031068254 -34 830 c 6
 179 953 l 6
 190.280571259 959.514132699 198.6 957.8 202 951 c 6
EndSplineSet
Refer: 49 108 N 1 0 0 1 0 0 2
EndChar

StartChar: eng
Encoding: 331 331 408
Width: 336
VWidth: 1104
Flags: HMW
LayerCount: 2
Fore
SplineSet
85 1053 m 2
 87 1053 l 2
 96 1053 99 1046 99 1034 c 2
 99 902 l 1
 102 886 l 1
 102 16 l 2
 102 4 97 -3 88 -3 c 2
 86 -3 l 2
 77 -3 72 4 72 16 c 2
 72 1034 l 2
 72 1046 76 1053 85 1053 c 2
267 -55 m 6
 267 -174 253.364257812 -219.436523438 151 -203 c 0
 141.077148438 -201.40625 132 -198 132 -189 c 2
 132 -188 l 2
 132 -179 142.0703125 -175.499023438 151 -177 c 0
 227.103515625 -189.7890625 238 -158 238 -74 c 2
 238 881 l 2
 238 963 231 1033 181 1033 c 0
 133 1033 102 926 102 805 c 1
 94 839 l 1
 94 967 117 1060 189 1060 c 0
 248 1060 267 1001 267 881 c 2
 267 -55 l 6
EndSplineSet
EndChar

StartChar: Eng
Encoding: 330 330 409
Width: 400
VWidth: 960
Flags: HMW
LayerCount: 2
Fore
SplineSet
316 1403 m 2
 318 1403 l 2
 329 1403 332 1394 332 1378 c 2
 332 -55 l 2
 332 -174 318.364257812 -219.436523438 216 -203 c 0
 206.077148438 -201.40625 197 -198 197 -189 c 2
 197 -188 l 2
 197 -179 207.0703125 -175.499023438 216 -177 c 0
 292.103515625 -189.7890625 302 -158 302 -74 c 2
 302 67.5829787234 l 1
 100 1247.7787234 l 1
 100 15 l 2
 100 6 97 -3 86 -3 c 2
 84 -3 l 2
 73 -3 70 6 70 15 c 2
 70 1385 l 2
 70 1396 75 1403 83 1403 c 2
 84 1403 l 2
 92 1403 99.1320719961 1393.85058623 101 1383 c 2
 302 215.413333333 l 1
 302 1378 l 2
 302 1394 305 1403 316 1403 c 2
EndSplineSet
EndChar

StartChar: oe
Encoding: 339 339 410
Width: 531
VWidth: 1104
Flags: HMW
LayerCount: 2
Fore
SplineSet
61 221 m 2
 61 831 l 2
 61 998 103 1060 175 1060 c 0
 247 1060 280 998 280 831 c 2
 280 221 l 2
 280 54 247 -10 175 -10 c 0
 103 -10 61 54 61 221 c 2
92 208 m 2
 92 87 121 18 175 18 c 0
 229 18 258 87 258 208 c 2
 258 843 l 2
 258 964 229 1032 175 1032 c 0
 121 1032 92 964 92 843 c 2
 92 208 l 2
468 388 m 0
 459 109.888910314 456 -10 368 -10 c 0
 295 -10 270 80 270 258 c 2
 270 793 l 2
 270 965 293 1060 369 1060 c 0
 441 1060 460 979 467 824 c 0
 473 698 472 648 472 522 c 4
 472 510 461 497 447 497 c 6
 277 497 l 1
 277 523 l 1
 445 523 l 1
 443 970 423 1033 369 1033 c 0
 313 1033 290 935 290 805 c 2
 290 245 l 2
 290 111 313 17 369 17 c 0
 428 17 438 114.887741407 447 390 c 0
 447.228874991 396.996257302 450 406 457 406 c 2
 458 406 l 2
 465 406 468.258753899 395.995814306 468 388 c 0
EndSplineSet
EndChar

StartChar: OE
Encoding: 338 338 411
Width: 596
VWidth: 1920
Flags: HMW
LayerCount: 2
Fore
SplineSet
235 1400 m 262
 327 1400 l 262
 331 1400 332 1399 332 1395 c 262
 332 5 l 262
 332 1 331 0 327 0 c 262
 235 0 l 262
 112 0 55 125 55 378 c 262
 55 1031 l 262
 55 1284 92 1400 235 1400 c 262
235 1370 m 262
 111 1370 85 1245 85 1036 c 262
 85 374 l 262
 85 165 132 30 235 30 c 262
 302 30 l 261
 302 1370 l 261
 235 1370 l 262
EndSplineSet
Refer: 16 69 N 1 0 0 1 226 0 2
EndChar

StartChar: Tbar
Encoding: 358 358 413
Width: 369
VWidth: 1920
Flags: HMW
LayerCount: 2
Fore
SplineSet
3 715 m 14
 3 717 l 22
 3 725 10 731 19 731 c 14
 346 731 l 22
 356 731 363 725 363 717 c 14
 363 715 l 22
 363 707 356 701 346 701 c 14
 19 701 l 22
 10 701 3 707 3 715 c 14
EndSplineSet
Refer: 31 84 N 1 0 0 1 0 0 2
EndChar

StartChar: tbar
Encoding: 359 359 414
Width: 215
VWidth: 1920
Flags: HMW
LayerCount: 2
Fore
SplineSet
23 645 m 10
 23 647 l 18
 23 655 30 661 39 661 c 10
 187 661 l 18
 197 661 204 655 204 647 c 10
 204 645 l 18
 204 637 197 631 187 631 c 10
 39 631 l 18
 30 631 23 637 23 645 c 10
EndSplineSet
Refer: 57 116 N 1 0 0 1 0 0 2
EndChar

StartChar: uni0394
Encoding: 916 916 430
Width: 393
VWidth: 960
Flags: HMW
LayerCount: 2
Fore
SplineSet
50 0 m 6
 41 0 37.8818359375 8.01171875 39 20 c 2
 167 1387 l 2
 167.841034228 1396.01483564 175 1404 187 1404 c 2
 194 1404 l 2
 206 1404 212.160208005 1396.11996062 213 1388 c 2
 355 19 l 2
 356.340820312 6.0341796875 353 0 339 0 c 6
 50 0 l 6
67.3984962406 30 m 1
 317.545112782 30 l 1
 190 1345 l 1
 67.3984962406 30 l 1
EndSplineSet
EndChar

StartChar: uni03A9
Encoding: 937 937 431
Width: 498
VWidth: 1920
Flags: HMW
LayerCount: 2
Fore
SplineSet
271 38 m 0
 343 150 374 314 374 504 c 2
 374 1045 l 2
 374 1244 339 1387 227 1387 c 0
 115 1387 79 1244 79 1045 c 2
 79 504 l 2
 79 314 110 148 184 37 c 0
 188 31 193 22 193 16 c 6
 193 15 l 2
 193 9 191 -1.71450551881e-15 177 0 c 2
 67 0 l 2
 53 0 45 5 45 14 c 2
 45 15 l 2
 45 24 53 30 67 30 c 2
 164 30 l 1
 83 154 49 326 49 524 c 2
 49 1041 l 2
 49 1284 86 1417 227 1417 c 0
 368 1417 404 1284 404 1041 c 2
 404 524 l 2
 404 326 368 154 288 30 c 1
 387 30 l 2
 398 30 404 24 404 15 c 2
 404 14 l 2
 404 5 398 -1.34711147906e-15 387 0 c 2
 277 0 l 2
 263 0 258 6 258 13 c 2
 258 16 l 2
 258 22 266 30 271 38 c 0
EndSplineSet
EndChar

StartChar: pi
Encoding: 960 960 432
Width: 407
VWidth: 1920
Flags: HMW
LayerCount: 2
Fore
SplineSet
126 1030 m 2
 126 15 l 2
 126 4 121 -3 113 -3 c 2
 111 -3 l 2
 103 -3 96 4 96 15 c 2
 96 1030 l 2
 96 1034 98 1035 102 1035 c 2
 122 1035 l 2
 126 1035 126 1034 126 1030 c 2
373 17 m 2
 373 15 l 2
 373 6 366.927830206 -1.39297573269 356 -3 c 0
 263.71284387 -16.5715596482 246 22 246 126 c 258
 246 1030 l 2
 246 1034 246 1035 250 1035 c 2
 270 1035 l 2
 274 1035 276 1034 276 1030 c 2
 276 104 l 258
 276 40 292.014724309 16.3014724309 356 30 c 0
 365.827189036 32.103890598 373 25 373 17 c 2
35 1034 m 10
 35 1035 l 18
 35 1044 43 1050 52 1050 c 10
 328 1050 l 18
 339 1050 345 1044 345 1035 c 10
 345 1034 l 18
 345 1025 339 1020 328 1020 c 10
 52 1020 l 18
 43 1020 35 1026 35 1034 c 10
EndSplineSet
EndChar

StartChar: minute
Encoding: 8242 8242 433
Width: 162
VWidth: 1920
Flags: HMW
LayerCount: 2
Fore
SplineSet
35.6396484375 927 m 2
 34.6396484375 927 l 2
 29.6396484375 927 24.4684153143 931.022440787 25.6396484375 940 c 2
 85 1395 l 2
 87.7440646593 1416.03338992 99.6396484375 1430 112.639648438 1430 c 2
 115.639648438 1430 l 2
 127.639648438 1430 136.606965265 1413.8860484 134 1400 c 2
 47.6396484375 940 l 2
 45.9735192302 931.125332152 42.6396484375 927 35.6396484375 927 c 2
EndSplineSet
EndChar

StartChar: Euro
Encoding: 8364 8364 435
Width: 505
VWidth: 1920
Flags: HMW
LayerCount: 2
Fore
SplineSet
-35 620 m 14
 -35 622 l 22
 -35 631 -29 636 -18 636 c 14
 238 636 l 18
 249 636 255 631 255 622 c 10
 255 620 l 18
 255 611 249 606 238 606 c 10
 -18 606 l 22
 -29 606 -35 610 -35 620 c 14
-35 763 m 14
 -35 765 l 22
 -35 774 -29 779 -18 779 c 14
 238 779 l 18
 249 779 255 774 255 765 c 10
 255 763 l 18
 255 754 249 749 238 749 c 10
 -18 749 l 22
 -29 749 -35 753 -35 763 c 14
395 343 m 256
 395 226 385 -18 243 -18 c 256
 105 -18 90 129 90 359 c 258
 90 1042 l 258
 90 1292 115 1418 238 1418 c 256
 390 1418 390 1252 390 1136 c 256
 390 1127 385 1119 376 1119 c 258
 375 1119 l 258
 366 1119 360.030449591 1127.00000695 360 1136 c 256
 359.550012927 1269.00278848 346 1388 238 1388 c 256
 140 1388 120 1241 120 1046 c 258
 120 354 l 258
 120 149 143 12 243 12 c 256
 344 12 365 186.997070312 365 343 c 256
 365 352 371 358 380 358 c 258
 381 358 l 258
 390 358 395 352 395 343 c 256
EndSplineSet
EndChar

StartChar: uni2116
Encoding: 8470 8470 436
Width: 695
VWidth: 1920
Flags: HMW
LayerCount: 2
Fore
SplineSet
417 13 m 14
 417 15 l 22
 417 24 423 30 434 30 c 14
 621 30 l 22
 632 30 638 24 638 15 c 14
 638 13 l 22
 638 4 632 -1.34711147906e-15 621 0 c 14
 434 0 l 22
 423 0 417 4 417 13 c 14
EndSplineSet
Refer: 132 8304 N 1 0 0 1 360 -295 2
Refer: 25 78 N 1 0 0 1 0 0 2
EndChar

StartChar: trademark
Encoding: 8482 8482 437
Width: 611
VWidth: 1920
Flags: HMW
LayerCount: 2
Fore
SplineSet
53 1400 m 2
 254 1400 l 2
 263 1400 270 1394 270 1386 c 2
 270 1384 l 2
 270 1376 263 1370 254 1370 c 2
 167 1370 l 257
 167 576 l 2
 167 565 161 557 154 557 c 2
 153 557 l 2
 146 557 140 565 140 576 c 2
 140 1370 l 257
 53 1370 l 2
 44 1370 37 1375 37 1384 c 2
 37 1386 l 2
 37 1395 44 1400 53 1400 c 2
346 1372 m 257
 346 576 l 2
 346 565 341 557 334 557 c 2
 333 557 l 2
 326 557 321 565 321 576 c 2
 321 1374 l 2
 321 1388 332 1400 344 1400 c 2
 347 1400 l 2
 359 1400 371.639817334 1387.06188845 373 1373 c 2
 441 670 l 257
 504 1374 l 2
 505.250832191 1387.97755337 518 1400 530 1400 c 2
 538 1400 l 2
 550 1400 561 1388 561 1374 c 2
 561 576 l 6
 561 565 553 557 546 557 c 6
 545 557 l 6
 538 557 530 565 530 576 c 6
 530 1310 l 257
 455 578 l 2
 453.874270707 567.0128821 449 557 442 557 c 2
 440 557 l 2
 433 557 427.002481328 564.000248755 426 574 c 2
 346 1372 l 257
EndSplineSet
EndChar

StartChar: partialdiff
Encoding: 8706 8706 438
Width: 432
VWidth: 1920
Flags: HMW
LayerCount: 2
Fore
SplineSet
194 856 m 256
 124 856 115 754 115 662 c 258
 115 198 l 258
 115 78 126 12 210 12 c 256
 294 12 307 121 307 236 c 258
 307 793 l 258
 307 1186 292.45060467 1352.4344857 134 1414 c 0
 124.457451928 1417.70772886 117 1426 121 1434 c 2
 122 1436 l 2
 126 1444 135.723872206 1444.40467905 146 1440 c 4
 322.798577231 1364.2184405 337 1194 337 756 c 258
 337 268 l 258
 337 118 334 -18 210 -18 c 256
 109 -18 85 54 85 178 c 258
 85 678 l 258
 85 800 110 886 194 886 c 256
 272 886 314 822 314 725 c 257
 307 630 l 257
 307 695 l 258
 307 787 269 856 194 856 c 256
EndSplineSet
EndChar

StartChar: summation
Encoding: 8721 8721 439
Width: 434
VWidth: 1920
Flags: HMW
LayerCount: 2
Fore
SplineSet
350 505 m 2
 116 -330 l 1
 369 -330 l 6
 378 -330 387 -333 387 -344 c 6
 387 -346 l 6
 387 -357 378 -360 369 -360 c 6
 99 -360 l 2
 85 -360 78.2163210547 -350.512781718 83 -333 c 2
 316 520 l 1
 83 1372 l 2
 78.1873510785 1389.59818404 85 1400 99 1400 c 2
 369 1400 l 2
 378 1400 387 1396 387 1386 c 2
 387 1384 l 2
 387 1374 378 1370 369 1370 c 2
 116 1370 l 1
 350 535 l 2
 354 523 354 517 350 505 c 2
EndSplineSet
EndChar

StartChar: minus
Encoding: 8722 8722 440
Width: 585
Flags: HMW
LayerCount: 2
Fore
SplineSet
62 256 m 14
 62 258 l 18
 62 267 67 272 81 272 c 10
 504 272 l 18
 518 272 523 267 523 258 c 10
 523 256 l 22
 523 247 518 242 504 242 c 14
 81 242 l 22
 67 242 62 247 62 256 c 14
EndSplineSet
EndChar

StartChar: integral
Encoding: 8747 8747 441
Width: 182
VWidth: 960
Flags: HMW
LayerCount: 2
Fore
SplineSet
95 -49 m 2
 95 -153 86.703125 -194.956054688 15 -179 c 4
 6.18183881704 -177.037699723 -3 -171 -3 -160 c 6
 -3 -158 l 6
 -3 -145 5.98401050035 -141.156238575 15 -142 c 4
 59.390625 -146.154296875 65 -133 65 -69 c 2
 65 1337 l 2
 65 1441 68.9532006586 1473.10252786 126 1466 c 0
 135.971344135 1464.75853246 145 1459 145 1448 c 2
 145 1446 l 2
 145 1435 135.180278581 1430.96297491 124 1431 c 0
 101.59185728 1431.07420777 95 1420 95 1357 c 2
 95 -49 l 2
EndSplineSet
EndChar

StartChar: radical
Encoding: 8730 8730 443
Width: 448
VWidth: 1920
Flags: HMW
LayerCount: 2
Fore
SplineSet
201 1050 m 2
 221 1050 228.508708217 1036.8984425 230 1015 c 2
 287 178 l 1
 386 1580 l 2
 386.91341978 1592.93550032 392 1603 400 1603 c 6
 402 1603 l 6
 410 1603 414.918689126 1593.00544258 414 1580 c 2
 299 -48 l 2
 297.369332097 -71.0261553866 281.85473935 -70.0117079812 280 -47 c 2
 194 1020 l 1
 100 1020 l 2
 89 1020 82 1026 82 1034 c 2
 82 1036 l 2
 82 1044 89 1050 100 1050 c 2
 201 1050 l 2
EndSplineSet
EndChar

StartChar: infinity
Encoding: 8734 8734 444
Width: 696
VWidth: 1331
Flags: HMW
LayerCount: 2
Fore
SplineSet
189 482 m 4
 99 482 70 567 70 664 c 0
 70 761 99 844 189 844 c 4
 266 844 317 759 349 679 c 5
 381 759 431 844 508 844 c 4
 598 844 626 761 626 664 c 0
 626 567 598 482 508 482 c 4
 431 482 371 567 349 647 c 1
 316 567 266 482 189 482 c 4
189 512 m 4
 263 512 304 602 331 664 c 1
 306 725 263 814 189 814 c 4
 122 814 100 729 100 664 c 0
 100 600 122 512 189 512 c 4
508 512 m 4
 575 512 596 600 596 664 c 0
 596 729 575 814 508 814 c 4
 434 814 391 725 366 664 c 1
 381 603 434 512 508 512 c 4
EndSplineSet
EndChar

StartChar: product
Encoding: 8719 8719 445
Width: 590
VWidth: 1920
Flags: HMW
LayerCount: 2
Fore
SplineSet
450 1400 m 2
 464 1400 475 1387 475 1370 c 2
 475 20 l 6
 475 6 471 -3 462 -3 c 6
 458 -3 l 6
 449 -3 445 6 445 20 c 6
 445 1370 l 257
 145 1370 l 257
 145 20 l 6
 145 6 141 -3 132 -3 c 6
 128 -3 l 6
 119 -3 115 6 115 20 c 6
 115 1370 l 18
 115 1387 126 1400 140 1400 c 10
 450 1400 l 2
EndSplineSet
EndChar

StartChar: uni2219
Encoding: 8729 8729 446
Width: 270
Flags: HMW
LayerCount: 2
Fore
SplineSet
60 675 m 4
 60 719 91 750 135 750 c 4
 179 750 210 719 210 675 c 4
 210 631 182 600 138 600 c 4
 94 600 60 631 60 675 c 4
EndSplineSet
EndChar

StartChar: approxequal
Encoding: 8776 8776 447
Width: 498
VWidth: 1210
Flags: HMW
LayerCount: 2
Fore
SplineSet
155 635 m 256
 94 635 66.0107421875 594.9296875 56 549 c 0
 53.8774373561 539.261597282 50 531 42 531 c 2
 41 531 l 2
 32 531 29.323920819 539.022880328 30 549 c 0
 34 608.029296875 85 665 155 665 c 256
 245 665 268 551 344 551 c 256
 405 551 436.101374763 597.786278037 443 637 c 0
 444.73194225 646.844845826 447 655 455 655 c 2
 456 655 l 2
 463 655 469.076264564 647.947221318 468 637 c 0
 462 575.971020578 414 521 344 521 c 256
 254 521 241 635 155 635 c 256
155 450 m 256
 94 450 66.0107421875 409.9296875 56 364 c 0
 53.876953125 354.26171875 50 346 42 346 c 2
 41 346 l 2
 32 346 29.32421875 354.022460938 30 364 c 0
 34 423.029296875 85 480 155 480 c 256
 245 480 268 366 344 366 c 256
 405 366 436.1015625 412.786132812 443 452 c 0
 444.732421875 461.844726562 447 470 455 470 c 2
 456 470 l 2
 463 470 469.076171875 462.947265625 468 452 c 0
 462 390.970703125 414 336 344 336 c 256
 254 336 241 450 155 450 c 256
EndSplineSet
EndChar

StartChar: notequal
Encoding: 8800 8800 448
Width: 530
VWidth: 1920
Flags: HMW
LayerCount: 2
Fore
SplineSet
491 722 m 2
 492 721 l 2
 496.5 716.5 496.735961452 709.020814886 485 697 c 2
 83 285 l 6
 73.100076053 274.853809288 63.5 273.5 59 278 c 6
 58 279 l 6
 53.5 283.5 55.100076053 292.853809288 65 303 c 6
 467 715 l 2
 478.735961452 727.020814886 486.5 726.5 491 722 c 2
EndSplineSet
Refer: 83 61 N 1 0 0 1 0 0 2
EndChar

StartChar: lessequal
Encoding: 8804 8804 449
Width: 520
VWidth: 1920
Flags: HMW
LayerCount: 2
Fore
SplineSet
55 363 m 14
 55 365 l 22
 55 374 63 379 72 379 c 14
 438 379 l 22
 448 379 455 374 455 365 c 14
 455 363 l 22
 455 354 448 349 438 349 c 14
 72 349 l 22
 63 349 55 354 55 363 c 14
EndSplineSet
Refer: 84 60 N 1 0 0 1 0 150 2
EndChar

StartChar: greaterequal
Encoding: 8805 8805 450
Width: 520
VWidth: 1920
Flags: HMW
LayerCount: 2
Fore
SplineSet
45 363 m 10
 45 365 l 18
 45 374 53 379 62 379 c 10
 428 379 l 18
 438 379 445 374 445 365 c 10
 445 363 l 18
 445 354 438 349 428 349 c 10
 62 349 l 18
 53 349 45 354 45 363 c 10
EndSplineSet
Refer: 85 62 N 1 0 0 1 0 150 2
EndChar

StartChar: lozenge
Encoding: 9674 9674 451
Width: 650
Flags: HMW
LayerCount: 2
Fore
SplineSet
324 58 m 2
 81 702 l 2
 77.733821033 710.656046316 77.7301029845 713.344390253 81 722 c 2
 319 1352 l 2
 326.236387208 1371.15514261 346.805233937 1370.9333121 355 1347 c 2
 569 722 l 2
 571.871855796 713.612570689 571.864381303 710.384825269 569 702 c 2
 349 58 l 2
 341.747357148 36.7695363781 331.104564307 39.171442743 324 58 c 2
336 123 m 1
 533 712 l 1
 331 1290 l 1
 117 712 l 1
 336 123 l 1
EndSplineSet
EndChar

StartChar: uniF8EA
Encoding: 63722 63722 452
Width: 553
VWidth: 1582
Flags: HMW
LayerCount: 2
Fore
SplineSet
56 1400 m 6
 218 1400 l 6
 236 1400 246 1395 246 1384 c 6
 246 1379 l 6
 246 1368 236 1363 218 1363 c 6
 160 1363 l 5
 160 1173 l 6
 160 1150 152 1139 137 1139 c 6
 137 1139 l 6
 122 1139 114 1150 114 1173 c 6
 114 1363 l 5
 56 1363 l 6
 38 1363 28 1368 28 1379 c 6
 28 1384 l 6
 28 1395 38 1400 56 1400 c 6
305 1345 m 5
 305 1172 l 6
 305 1149 301 1139 287 1139 c 6
 285 1139 l 6
 271 1139 268 1149 268 1172 c 6
 268 1366 l 6
 268 1389 278 1404 297 1404 c 6
 301 1404 l 6
 325 1404 332 1390 340 1369 c 6
 395 1229 l 5
 453 1371 l 6
 461 1390 472 1404 487 1404 c 6
 493 1404 l 6
 506 1404 517 1397 517 1366 c 6
 517 1173 l 6
 517 1150 511 1139 496 1139 c 6
 494 1139 l 6
 479 1139 473 1150 473 1173 c 6
 473 1329 l 5
 408 1167 l 6
 402 1152 400 1148 391 1148 c 6
 390 1148 l 6
 381 1148 380 1151 374 1167 c 6
 305 1345 l 5
EndSplineSet
EndChar

StartChar: uniF8E8
Encoding: 63720 63720 453
Width: 492
Flags: HMW
LayerCount: 2
Fore
SplineSet
190 1311 m 1
 190 1232 l 1
 255 1232 l 2
 284 1232 298 1244 298 1265 c 2
 298 1278 l 2
 298 1299 284 1311 255 1311 c 2
 190 1311 l 1
257 1343 m 2
 306 1343 341 1320 341 1277 c 2
 341 1272 l 2
 341 1229 305 1211 257 1211 c 1
 257 1221 l 1
 305 1221 340 1208 340 1165 c 2
 340 1150 l 2
 340 1131 344 1120 349 1110 c 0
 351 1105 353 1101 353 1098 c 2
 353 1097 l 2
 353 1089 346 1085 335 1085 c 2
 333 1085 l 2
 321 1085 312 1090 308 1099 c 0
 300 1114 298 1134 298 1150 c 2
 298 1170 l 2
 298 1191 284 1202 255 1202 c 2
 190 1202 l 1
 190 1110 l 2
 190 1094 182 1085 170 1085 c 2
 168 1085 l 2
 156 1085 148 1094 148 1110 c 2
 148 1310 l 2
 148 1331 160 1343 181 1343 c 2
 257 1343 l 2
455 1207 m 0
 455 1092 360 999 245 999 c 0
 130 999 37 1092 37 1207 c 0
 37 1322 130 1417 245 1417 c 0
 360 1417 455 1322 455 1207 c 0
429 1207 m 0
 429 1309 347 1391 245 1391 c 0
 143 1391 62 1309 62 1207 c 0
 62 1105 143 1025 245 1025 c 0
 347 1025 429 1105 429 1207 c 0
EndSplineSet
EndChar

StartChar: uniF8E9
Encoding: 63721 63721 454
Width: 492
VWidth: 1569
Flags: HMW
LayerCount: 2
Fore
SplineSet
348 1158 m 4
 339 1113 306 1076 244 1076 c 4
 172 1076 135 1126 135 1194 c 6
 135 1223 l 6
 135 1291 172 1341 244 1341 c 4
 305 1341 333 1310 342 1274 c 4
 346 1260 338 1250 328 1250 c 6
 325 1250 l 6
 314 1250 311 1259 307 1271 c 4
 300 1294 277 1311 247 1311 c 4
 203 1311 178 1272 178 1225 c 6
 178 1192 l 6
 178 1145 199 1106 247 1106 c 4
 284 1106 305 1127 312 1158 c 4
 314 1169 319 1180 331 1180 c 6
 333 1180 l 6
 345 1180 350 1170 348 1158 c 4
455 1208 m 4
 455 1093 360 999 245 999 c 4
 130 999 37 1093 37 1208 c 4
 37 1323 130 1417 245 1417 c 4
 360 1417 455 1323 455 1208 c 4
429 1208 m 4
 429 1309 346 1391 245 1391 c 4
 144 1391 62 1309 62 1208 c 4
 62 1107 144 1025 245 1025 c 4
 346 1025 429 1107 429 1208 c 4
EndSplineSet
EndChar

StartChar: uni1E9E
Encoding: 7838 7838 457
Width: 496
VWidth: 1920
Flags: HMW
LayerCount: 2
Fore
SplineSet
94 1102 m 2
 94 1304 112 1405 222 1405 c 0
 313 1405 349.098715445 1316.30471004 383 1192 c 0
 389 1170 389.376162133 1149.50602587 386 1132 c 2
 305 712 l 1
 365 637 435 564 435 334 c 0
 435 122 389 -5 309 -5 c 0
 260 -5 226 33 203 88 c 0
 198 100 190 116 190 122 c 2
 190 123 l 2
 190 137 201 148 211 129 c 0
 237 77 258 25 309 25 c 0
 367 25 405 165 405 334 c 0
 405 532 372.503212207 588.541950319 285 684 c 0
 274 696 270.160857073 707.967454499 273 722 c 2
 360 1152 l 1
 349 1238 301 1375 222 1375 c 0
 128 1375 124 1268 124 1092 c 2
 124 15 l 2
 124 6 119 -3 110 -3 c 2
 109 -3 l 2
 100 -3 94 6 94 15 c 2
 94 1102 l 2
EndSplineSet
EndChar
